<svg xmlns="http://www.w3.org/2000/svg" xmlns:xlink="http://www.w3.org/1999/xlink" width="181" zoomAndPan="magnify" viewBox="0 0 135.75 237.749993" height="317" preserveAspectRatio="xMidYMid meet" version="1.0"><defs><g/><clipPath id="6f79c2dbf7"><path d="M 3.613281 0.09375 L 135.027344 0.09375 L 135.027344 237.21875 L 3.613281 237.21875 Z M 3.613281 0.09375 " clip-rule="nonzero"/></clipPath><clipPath id="4277e163ee"><path d="M 3.613281 58.332031 C 3.613281 26.164062 33.03125 0.0859375 69.320312 0.0859375 C 105.609375 0.0859375 135.027344 26.164062 135.027344 58.332031 L 135.027344 178.972656 C 135.027344 211.140625 105.609375 237.21875 69.320312 237.21875 C 33.03125 237.21875 3.613281 211.140625 3.613281 178.972656 Z M 3.613281 58.332031 " clip-rule="nonzero"/></clipPath><clipPath id="bc70f0921e"><path d="M 0.613281 0.09375 L 132.027344 0.09375 L 132.027344 237.21875 L 0.613281 237.21875 Z M 0.613281 0.09375 " clip-rule="nonzero"/></clipPath><clipPath id="8a59b1751c"><path d="M 0.613281 58.332031 C 0.613281 26.164062 30.03125 0.0859375 66.320312 0.0859375 C 102.609375 0.0859375 132.027344 26.164062 132.027344 58.332031 L 132.027344 178.972656 C 132.027344 211.140625 102.609375 237.21875 66.320312 237.21875 C 30.03125 237.21875 0.613281 211.140625 0.613281 178.972656 Z M 0.613281 58.332031 " clip-rule="nonzero"/></clipPath><clipPath id="a656944808"><rect x="0" width="133" y="0" height="238"/></clipPath><clipPath id="9de5bcc09b"><path d="M 3.613281 0.09375 L 135.371094 0.09375 L 135.371094 237.214844 L 3.613281 237.214844 Z M 3.613281 0.09375 " clip-rule="nonzero"/></clipPath><clipPath id="817676085c"><path d="M 3.613281 58.339844 C 3.613281 26.175781 33.027344 0.0976562 69.316406 0.0976562 C 105.601562 0.0976562 135.019531 26.175781 135.019531 58.339844 L 135.019531 178.972656 C 135.019531 211.140625 105.601562 237.214844 69.316406 237.214844 C 33.027344 237.214844 3.613281 211.140625 3.613281 178.972656 Z M 3.613281 58.339844 " clip-rule="nonzero"/></clipPath><clipPath id="0b9d0a9ae6"><path d="M 5.535156 116 L 52 116 L 52 189 L 5.535156 189 Z M 5.535156 116 " clip-rule="nonzero"/></clipPath><clipPath id="aa2c742f32"><path d="M 71 153 L 127.5625 153 L 127.5625 193.523438 L 71 193.523438 Z M 71 153 " clip-rule="nonzero"/></clipPath><clipPath id="45cefeb767"><path d="M 47 43.800781 L 77 43.800781 L 77 73 L 47 73 Z M 47 43.800781 " clip-rule="nonzero"/></clipPath></defs><g clip-path="url(#6f79c2dbf7)"><g clip-path="url(#4277e163ee)"><g transform="matrix(1, 0, 0, 1, 3, -0.000000000000054914)"><g clip-path="url(#a656944808)"><g clip-path="url(#bc70f0921e)"><g clip-path="url(#8a59b1751c)"><path fill="#ffdac3" d="M 0.613281 237.21875 L 0.613281 0.0585938 L 132.027344 0.0585938 L 132.027344 237.21875 Z M 0.613281 237.21875 " fill-opacity="1" fill-rule="nonzero"/></g></g></g></g></g></g><g clip-path="url(#9de5bcc09b)"><g clip-path="url(#817676085c)"><path stroke-linecap="butt" transform="matrix(0, -0.748621, 0.748621, 0, 3.61249, 237.216676)" fill="none" stroke-linejoin="miter" d="M 238.941668 0.00105753 C 281.906063 0.00105753 316.74093 39.292033 316.74093 87.766556 C 316.74093 136.235861 281.906063 175.532054 238.941668 175.532054 L 77.801709 175.532054 C 34.832096 175.532054 0.00244713 136.235861 0.00244713 87.766556 C 0.00244713 39.292033 34.832096 0.00105753 77.801709 0.00105753 Z M 238.941668 0.00105753 " stroke="#445a66" stroke-width="4" stroke-opacity="1" stroke-miterlimit="4"/></g></g><path fill="#43302a" d="M 91.367188 109.140625 C 85.199219 110.371094 78.796875 109.589844 77.058594 109.320312 C 77 111.894531 76.28125 114.441406 76.371094 116.953125 C 78.078125 115.21875 82.894531 115.097656 82.894531 115.097656 C 92.027344 115.339844 91.367188 109.140625 91.367188 109.140625 Z M 91.367188 109.140625 " fill-opacity="1" fill-rule="nonzero"/><path fill="#43302a" d="M 75.832031 118.152344 C 75.351562 115.25 76.429688 112.136719 76.609375 109.261719 C 76.519531 104.832031 74.695312 99.894531 72.210938 100.074219 C 69.695312 100.253906 68.679688 106.507812 68.109375 110.070312 C 67.808594 111.867188 67.570312 114.082031 67.421875 115.816406 C 67.75 118.332031 67.300781 120.996094 67.03125 123.449219 C 66.640625 126.714844 66.3125 129.976562 67.0625 133.238281 C 67.121094 133.476562 66.703125 133.566406 66.640625 133.328125 C 65.683594 129.976562 66.105469 126.59375 66.523438 123.210938 C 66.492188 123.089844 66.941406 120.546875 62.210938 116.296875 C 61.34375 115.519531 60.65625 114.5 60.207031 113.421875 C 59.667969 112.136719 59.488281 110.730469 59.308594 109.351562 C 58.828125 105.671875 58.023438 102.019531 57.753906 98.335938 C 57.542969 95.464844 57.691406 89.957031 57.691406 89.957031 C 57.691406 89.957031 57.84375 78.519531 57.691406 77.085938 C 57.542969 75.648438 56.675781 71.457031 54.160156 71.546875 C 51.644531 71.636719 51.195312 84.417969 51.105469 85.496094 C 51.015625 86.574219 51.105469 85.496094 50.71875 94.265625 C 50.328125 103.035156 51.105469 110.96875 51.105469 110.96875 C 51.105469 110.96875 51.078125 111.027344 51.046875 111.117188 C 51.226562 113.453125 51.078125 115.816406 50.898438 118.152344 C 50.867188 118.390625 50.449219 118.421875 50.449219 118.152344 C 50.507812 116.328125 50.570312 114.53125 50.507812 112.734375 C 49.789062 115.097656 48.652344 119.289062 49.042969 121.863281 C 49.582031 125.605469 58.859375 146.078125 57.542969 153.503906 C 56.195312 160.925781 43.773438 188.523438 43.773438 188.523438 L 67.570312 185.832031 C 67.570312 185.832031 74.246094 164.007812 76.28125 159.640625 C 78.347656 155.269531 82.625 149.523438 82.445312 141.230469 C 82.296875 133.417969 75.800781 121.503906 75.832031 118.152344 Z M 69.15625 154.640625 C 69.277344 154.492188 69.457031 154.460938 69.605469 154.582031 C 69.753906 154.699219 69.785156 154.878906 69.664062 155.03125 C 69.574219 155.179688 69.367188 155.210938 69.246094 155.089844 C 69.097656 154.96875 69.066406 154.789062 69.15625 154.640625 Z M 68.679688 155.867188 C 68.828125 155.65625 69.097656 155.628906 69.304688 155.777344 C 69.484375 155.925781 69.546875 156.195312 69.394531 156.40625 C 69.246094 156.585938 68.976562 156.644531 68.769531 156.496094 C 68.589844 156.347656 68.527344 156.046875 68.679688 155.867188 Z M 68.109375 157.335938 C 68.289062 157.066406 68.679688 157.003906 68.945312 157.214844 C 69.214844 157.425781 69.277344 157.785156 69.066406 158.054688 C 68.886719 158.320312 68.5 158.382812 68.230469 158.171875 C 67.960938 157.964844 67.898438 157.605469 68.109375 157.335938 Z M 62.09375 180.261719 C 61.914062 180.261719 61.761719 180.144531 61.761719 179.964844 C 61.761719 179.785156 61.882812 179.632812 62.0625 179.632812 C 62.242188 179.632812 62.390625 179.753906 62.390625 179.933594 C 62.390625 180.113281 62.242188 180.261719 62.09375 180.261719 Z M 62.480469 179.125 C 62.242188 179.125 62.03125 178.945312 62.003906 178.707031 C 62.003906 178.46875 62.183594 178.257812 62.421875 178.226562 C 62.660156 178.226562 62.871094 178.40625 62.902344 178.648438 C 62.902344 178.886719 62.722656 179.09375 62.480469 179.125 Z M 62.929688 177.6875 C 62.601562 177.71875 62.332031 177.449219 62.300781 177.121094 C 62.273438 176.789062 62.542969 176.519531 62.871094 176.492188 C 63.199219 176.460938 63.46875 176.730469 63.5 177.058594 C 63.5 177.390625 63.261719 177.6875 62.929688 177.6875 Z M 66.074219 174.574219 C 65.835938 175.265625 65.324219 175.742188 64.695312 176.011719 C 64.847656 175.863281 64.996094 175.652344 65.054688 175.414062 C 65.355469 174.546875 64.90625 173.617188 64.039062 173.320312 C 63.171875 173.019531 62.242188 173.46875 61.941406 174.335938 C 61.851562 174.574219 61.824219 174.816406 61.851562 175.023438 C 61.523438 174.457031 61.402344 173.738281 61.644531 173.050781 C 62.0625 171.820312 63.410156 171.164062 64.636719 171.582031 C 65.863281 172 66.492188 173.347656 66.074219 174.574219 Z M 65.863281 170.027344 C 64.488281 170.117188 63.320312 169.066406 63.230469 167.722656 C 63.140625 166.34375 64.1875 165.175781 65.535156 165.085938 C 66.910156 164.996094 68.078125 166.042969 68.167969 167.390625 C 68.257812 168.769531 67.210938 169.9375 65.863281 170.027344 Z M 69.695312 162.125 C 69.097656 163.261719 67.691406 163.738281 66.550781 163.140625 C 65.414062 162.542969 64.9375 161.136719 65.535156 160 C 65.863281 159.371094 66.433594 158.921875 67.089844 158.769531 C 66.910156 158.921875 66.761719 159.101562 66.640625 159.308594 C 66.222656 160.117188 66.550781 161.105469 67.359375 161.523438 C 68.167969 161.945312 69.1875 161.613281 69.574219 160.804688 C 69.695312 160.597656 69.753906 160.359375 69.753906 160.117188 C 70.023438 160.777344 70.023438 161.496094 69.695312 162.125 Z M 69.695312 162.125 " fill-opacity="1" fill-rule="nonzero"/><path fill="#43302a" d="M 85.050781 87.5625 C 85.050781 87.5625 74.992188 89.417969 69.964844 92.320312 C 64.964844 95.222656 60.148438 100.792969 60.148438 100.792969 C 60.867188 94.894531 64.667969 91.570312 66.941406 89.65625 C 69.1875 87.742188 71.550781 87.679688 75.261719 86.242188 C 79.332031 84.65625 78.496094 79.417969 78.496094 79.417969 C 78.496094 79.417969 72.269531 81.09375 67.539062 82.980469 C 64.007812 84.386719 59.847656 87.832031 58.171875 89.386719 C 57.960938 92.46875 58.023438 95.253906 58.230469 98.367188 C 58.5 102.046875 59.308594 105.699219 59.789062 109.382812 C 59.996094 110.9375 60.207031 112.585938 60.984375 113.960938 C 61.644531 115.160156 62.632812 116.085938 63.589844 117.042969 C 64.964844 118.421875 66.285156 119.859375 66.671875 121.714844 C 66.792969 120.546875 66.910156 119.410156 66.910156 118.242188 C 66.3125 116.863281 64.785156 113.363281 63.949219 110.847656 C 62.871094 107.644531 66.703125 103.097656 66.703125 103.097656 C 66.703125 103.097656 70.921875 96.960938 73.378906 95.882812 C 75.472656 94.953125 79.511719 95.074219 82.957031 92.679688 C 86.429688 90.253906 85.050781 87.5625 85.050781 87.5625 Z M 85.050781 87.5625 " fill-opacity="1" fill-rule="nonzero"/><g clip-path="url(#0b9d0a9ae6)"><path fill="#43302a" d="M 5.730469 129.886719 C 5.730469 130.066406 6.027344 130.246094 6.117188 130.035156 C 6.835938 128.777344 9.558594 128.898438 10.816406 128.058594 C 11.207031 127.789062 11.476562 127.460938 11.835938 127.160156 C 12.941406 126.292969 14.050781 125.996094 15.335938 126.292969 C 15.726562 126.535156 22.371094 130.933594 25.183594 133.027344 C 24.886719 132.96875 24.585938 132.96875 24.289062 133 C 22.671875 132.699219 21.144531 132.011719 19.46875 132.308594 C 18.691406 132.460938 17.792969 132.640625 17.164062 133.117188 C 16.175781 133.898438 15.875 135.125 14.679688 135.691406 C 14.679688 135.691406 14.558594 135.753906 14.589844 135.78125 C 14.617188 135.78125 17.015625 136.472656 19.257812 135.902344 C 20.15625 135.664062 20.933594 135.214844 21.714844 134.707031 C 22.609375 134.105469 23.121094 133.566406 23.988281 133.386719 C 24.40625 133.449219 25.304688 133.359375 25.304688 133.359375 C 25.484375 133.386719 25.632812 133.417969 25.8125 133.476562 C 26.234375 133.777344 26.621094 134.078125 27.042969 134.40625 C 29.40625 136.230469 31.472656 138.535156 33.058594 141.140625 C 32.757812 140.902344 32.429688 140.722656 32.128906 140.570312 C 31.441406 140.003906 30.933594 139.40625 30.363281 138.65625 C 29.914062 138.058594 29.464844 137.488281 28.898438 137.011719 C 27.578125 135.902344 25.964844 135.332031 24.257812 135.214844 C 24.136719 135.214844 24.019531 135.332031 24.109375 135.453125 C 24.226562 135.632812 24.378906 135.84375 24.496094 136.023438 C 25.394531 137.371094 26.5625 138.476562 28 139.285156 C 28.746094 139.703125 29.496094 139.972656 30.304688 140.210938 C 30.933594 140.390625 31.441406 140.542969 31.949219 140.78125 C 32.519531 141.199219 33.117188 141.589844 33.625 142.097656 C 34.765625 144.164062 35.601562 146.347656 36.050781 148.652344 C 35.660156 147.636719 34.164062 146.078125 34.105469 146.050781 C 33.984375 145.960938 33.894531 145.839844 33.777344 145.75 C 32.191406 144.34375 31.742188 141.980469 30.035156 140.78125 C 27.042969 138.6875 22.339844 140.992188 19.109375 141.082031 C 19.050781 141.082031 18.988281 141.140625 19.050781 141.199219 C 20.695312 142.25 21.625 144.015625 23.390625 144.941406 C 23.417969 145.121094 23.449219 145.332031 23.507812 145.511719 C 24.019531 148.5625 25.992188 150.417969 26.800781 151.199219 C 27.667969 152.035156 28.566406 152.816406 29.675781 153.292969 C 30.003906 153.441406 30.363281 153.5625 30.722656 153.652344 C 31.769531 153.890625 33.566406 154.550781 34.164062 155.746094 C 34.613281 157.125 35.003906 158.5 35.242188 159.910156 C 34.734375 161.433594 34.105469 162.902344 33.386719 164.367188 C 33.386719 164.007812 33.355469 163.710938 33.238281 163.410156 C 32.96875 161.34375 32.039062 159.128906 30.8125 157.574219 C 28.835938 155.058594 25.394531 155.210938 23.390625 152.902344 C 23.300781 152.785156 23.089844 152.816406 23.089844 152.992188 C 23.210938 155.269531 23.597656 157.003906 25.304688 158.53125 C 26.261719 159.398438 27.730469 161.136719 28.957031 161.554688 C 32.816406 162.84375 33.117188 164.9375 33.117188 164.96875 C 32.878906 165.417969 31.589844 167.839844 31.203125 168.558594 C 30.933594 167.480469 30.152344 166.734375 29.285156 165.746094 C 27.820312 164.070312 26.621094 162.78125 24.707031 161.585938 C 21.503906 159.578125 17.703125 157.8125 13.8125 158.832031 C 13.632812 158.890625 13.660156 159.128906 13.839844 159.191406 C 16.117188 160.027344 16.625 162.0625 18.269531 163.5 C 19.527344 164.609375 21.234375 165.355469 22.671875 166.195312 C 23.449219 166.644531 24.738281 167.660156 26.054688 167.511719 C 29.195312 167.210938 29.617188 167.0625 30.214844 167.542969 C 31.023438 168.589844 31.050781 169.90625 31.082031 169.90625 C 29.765625 172.78125 28.539062 175.863281 28.296875 178.945312 C 28.089844 181.667969 27.878906 186.070312 29.707031 188.375 C 29.914062 188.613281 30.363281 188.496094 30.242188 188.136719 C 29.585938 186.25 29.046875 184.363281 28.898438 181.460938 C 28.71875 178.109375 29.765625 175.144531 30.753906 172.121094 C 31.441406 171.882812 33.058594 171.042969 33.296875 170.863281 C 33.355469 170.835938 33.386719 170.804688 33.417969 170.746094 C 37.789062 171.820312 40.511719 170.746094 44.792969 169.398438 C 50.507812 167.570312 50.867188 161.285156 50.867188 161.253906 C 51.285156 160 51.4375 159.011719 50.480469 160.476562 C 49.101562 162.574219 49.3125 163.53125 44.972656 165.175781 C 41.949219 166.3125 38.027344 166.3125 35.363281 168.230469 C 34.703125 168.707031 34.285156 169.457031 33.6875 169.90625 C 33.328125 170.175781 31.53125 170.984375 31.203125 171.253906 C 31.082031 171.34375 32.011719 168.019531 32.011719 167.992188 C 32.339844 167.480469 32.640625 167.003906 32.9375 166.492188 C 34.285156 165.476562 35.480469 164.546875 37.070312 163.859375 C 38.625 163.171875 39.734375 163.441406 41.257812 162.992188 C 42.667969 162.574219 43.535156 161.824219 44.3125 160.566406 C 46.496094 157.066406 48.890625 154.25 48.472656 149.941406 C 48.472656 149.792969 48.234375 149.582031 48.113281 149.730469 C 46.378906 151.496094 44.703125 153.382812 42.847656 155.03125 C 41.46875 156.257812 39.582031 156.945312 38.265625 158.203125 C 37.398438 159.039062 37.128906 159.640625 36.800781 160.777344 C 36.351562 162.363281 35.511719 163.53125 34.464844 164.636719 C 34.164062 164.878906 33.867188 165.085938 33.597656 165.328125 C 35.152344 162.332031 36.171875 159.160156 36.558594 155.957031 C 37.816406 154.582031 38.535156 153.59375 39.285156 151.855469 C 39.554688 151.199219 39.882812 150.570312 40.242188 149.972656 C 41.617188 149.703125 42.996094 149.882812 44.371094 149.433594 C 45.601562 149.042969 46.738281 148.382812 47.753906 147.605469 C 49.28125 146.410156 50.417969 144.734375 50.359375 142.785156 C 50.390625 142.695312 50.449219 142.605469 50.507812 142.488281 C 50.925781 141.199219 49.96875 139.945312 49.671875 138.746094 C 49.640625 138.566406 49.3125 138.445312 49.25 138.6875 C 48.832031 140.660156 48.203125 142.488281 47.304688 144.3125 C 47.304688 144.3125 47.304688 144.3125 47.304688 144.34375 C 46.648438 144.554688 46.019531 144.792969 45.359375 145.003906 C 44.34375 145.390625 43.292969 145.75 42.425781 146.4375 C 40.871094 147.667969 40.0625 149.132812 39.105469 150.988281 C 39.074219 150.359375 38.863281 149.433594 38.894531 149.34375 C 39.851562 145.390625 44.101562 143.773438 42.1875 139.523438 C 40.988281 136.921875 36.050781 132.101562 36.050781 132.070312 C 37.070312 128.808594 40.601562 126.292969 43.203125 124.257812 C 43.355469 124.140625 43.144531 123.929688 43.023438 123.929688 C 38.804688 123.898438 35.660156 126.472656 32.789062 129.347656 C 29.945312 132.191406 31.710938 135.394531 32.339844 138.6875 C 32.339844 138.835938 32.339844 138.984375 32.339844 139.136719 C 31.050781 137.308594 29.496094 135.753906 27.789062 134.375 C 26.113281 132.070312 27.820312 129.378906 27.730469 126.683594 C 27.609375 123.75 26.953125 120.964844 28.058594 118.09375 C 28.117188 117.941406 27.9375 117.613281 27.730469 117.734375 C 26.5625 118.453125 25.8125 119.171875 25.304688 120.488281 C 24.675781 122.132812 23.597656 123.929688 23.328125 125.726562 C 22.96875 128.328125 24.707031 130.84375 26.292969 132.910156 C 26.382812 133.089844 26.472656 133.269531 26.59375 133.449219 C 24.675781 131.980469 22.671875 130.632812 20.726562 129.257812 C 19.917969 127.222656 20.367188 125.007812 19.679688 122.941406 C 19.199219 121.59375 18.300781 120.457031 17.164062 119.5 C 17.042969 119.378906 16.863281 119.46875 16.863281 119.648438 C 16.773438 121.386719 17.253906 122.972656 17.882812 124.585938 C 18.75 126.804688 19.855469 128.238281 19.945312 128.390625 C 19.976562 128.539062 20.035156 128.6875 20.066406 128.867188 C 17.164062 126.804688 13.8125 124.855469 11.65625 122.042969 C 10.128906 120.007812 9.320312 118.332031 7.136719 116.894531 C 6.984375 116.804688 6.746094 116.835938 6.777344 117.074219 C 7.136719 120.457031 12.375 123.691406 12.375 123.660156 C 13.003906 124.289062 13.660156 124.828125 14.410156 125.367188 C 14.441406 125.394531 14.5 125.425781 14.527344 125.457031 C 13.121094 124.796875 11.507812 124.527344 10.097656 125.335938 C 9.621094 125.605469 9.292969 126.023438 8.871094 126.355469 C 8.242188 126.863281 7.375 127.101562 6.804688 127.609375 C 6.089844 128.269531 5.789062 128.867188 5.730469 129.886719 Z M 40.390625 149.820312 C 41.738281 147.726562 43.5625 146.199219 46.109375 145.332031 C 47.277344 144.941406 48.890625 144.582031 49.851562 143.625 C 49.3125 145.839844 47.753906 147.398438 45.601562 148.535156 C 43.921875 149.402344 42.097656 149.222656 40.390625 149.820312 Z M 37.097656 163.261719 C 39.222656 161.523438 41.410156 160.476562 43.324219 158.441406 C 45.210938 156.40625 46.648438 153.773438 48.023438 151.316406 C 48.441406 151.347656 48.351562 152.007812 48.054688 153.234375 C 47.664062 154.878906 46.675781 155.777344 45.75 157.15625 C 44.820312 158.472656 44.28125 160.507812 43.085938 161.585938 C 41.289062 163.113281 39.132812 162.453125 37.097656 163.261719 Z M 36.050781 163.589844 C 36.441406 162.960938 36.710938 162.183594 37.1875 160.957031 C 38.175781 158.320312 40.71875 157.515625 42.726562 155.867188 C 44.164062 154.699219 45.390625 152.546875 46.945312 151.675781 C 47.1875 151.558594 47.367188 151.46875 47.546875 151.40625 C 45.929688 153.921875 44.582031 156.734375 42.398438 158.800781 C 40.511719 160.597656 38.144531 161.675781 36.261719 163.5 C 36.230469 163.5 36.199219 163.53125 36.171875 163.53125 C 36.140625 163.53125 36.109375 163.558594 36.050781 163.589844 Z M 33.777344 170.445312 C 34.945312 169.425781 35.035156 168.738281 36.917969 167.871094 C 39.375 166.703125 42.335938 166.613281 44.941406 165.804688 C 46.707031 165.265625 48.832031 164.667969 50 163.113281 C 50 163.082031 50.03125 163.082031 50.03125 163.050781 C 49.671875 164.160156 49.3125 165.328125 48.742188 166.164062 C 47.636719 167.8125 45.628906 168.410156 43.894531 169.039062 C 40.78125 170.144531 37.667969 170.746094 33.777344 170.445312 Z M 29.496094 166.433594 C 27.222656 164.789062 24.707031 164.277344 22.164062 163.050781 C 20.15625 162.0625 18.78125 160.207031 16.445312 159.878906 C 16.386719 159.878906 16.414062 159.9375 16.445312 159.96875 C 18.71875 160.507812 20.066406 162.332031 22.074219 163.351562 C 23.238281 163.949219 24.558594 164.25 25.785156 164.757812 C 26.773438 165.175781 28.359375 166.074219 29.257812 166.613281 C 29.195312 166.613281 27.699219 166.703125 26.863281 166.882812 C 24.765625 167.363281 23.480469 166.34375 21.863281 165.386719 C 19.886719 164.25 18.332031 163.289062 17.042969 161.375 C 16.054688 159.878906 14.648438 159.28125 14.617188 159.101562 C 14.617188 159.011719 18.628906 159.371094 19.199219 159.429688 C 21.535156 159.757812 23.777344 161.285156 25.695312 162.632812 C 26.863281 163.441406 28.386719 164.90625 29.496094 166.433594 Z M 32.878906 162.871094 C 32.640625 162.574219 32.339844 162.332031 31.949219 162.125 C 30.78125 161.554688 29.347656 161.523438 28.238281 160.597656 C 27.28125 159.757812 26.292969 158.832031 25.425781 157.902344 C 24.855469 157.304688 23.210938 154.25 23.628906 153.742188 C 23.71875 153.621094 24.765625 154.671875 26.292969 155.238281 C 30.003906 156.617188 31.980469 159.308594 32.878906 162.871094 Z M 35.722656 132.011719 C 35.183594 131.59375 34.613281 131.203125 34.074219 130.902344 C 33.894531 130.8125 33.714844 130.933594 33.835938 131.144531 C 34.375 132.101562 34.734375 132.878906 35.0625 133.777344 C 34.164062 135.242188 32.789062 136.679688 32.429688 138.355469 C 31.980469 135.484375 30.511719 132.578125 32.816406 130.035156 C 34.226562 128.480469 36.261719 126.953125 37.996094 125.753906 C 38.714844 125.277344 42.515625 124.078125 42.1875 124.765625 C 41.769531 125.636719 40.003906 125.964844 38.386719 127.699219 C 37.007812 129.109375 36.320312 130.125 35.722656 132.011719 Z M 38.59375 148.804688 C 38.265625 146.707031 37.726562 144.734375 37.25 142.546875 C 36.558594 139.433594 36.558594 136.589844 35.480469 133.539062 C 34.316406 130.214844 35.722656 132.667969 37.160156 134.015625 C 38.535156 135.304688 40.0625 136.589844 40.898438 138.355469 C 43.472656 143.535156 39.824219 144.851562 38.59375 148.804688 Z M 23.6875 144.851562 C 23.660156 144.644531 23.480469 143.804688 23.539062 143.746094 C 23.539062 143.746094 26.503906 146.257812 27.519531 147.007812 C 30.214844 148.921875 32.128906 150.777344 33.417969 153.832031 C 32.308594 153.171875 30.902344 153.292969 29.734375 152.726562 C 26.683594 151.289062 24.378906 148.175781 23.6875 144.851562 Z M 32.878906 145.601562 C 32.429688 145.480469 31.949219 145.449219 31.5 145.449219 C 29.976562 145.511719 28.328125 146.5 26.863281 145.960938 C 25.574219 145.09375 24.378906 144.164062 23.507812 142.875 C 23.417969 142.726562 23.03125 142.636719 23.058594 142.9375 C 23.121094 143.503906 23.210938 144.042969 23.300781 144.582031 C 21.742188 143.746094 20.84375 142.25 19.378906 141.289062 C 22.671875 141.738281 26.203125 139.496094 29.347656 141.140625 C 31.082031 142.039062 31.230469 143.65625 32.371094 145.0625 C 32.550781 145.269531 32.726562 145.449219 32.878906 145.601562 Z M 36.46875 152.277344 C 36.558594 154.550781 36.199219 156.734375 35.601562 158.832031 C 35.480469 157.273438 35.09375 155.480469 34.105469 154.371094 C 34.105469 154.339844 33.507812 152.335938 32.21875 150.359375 C 31.023438 148.535156 29.078125 147.425781 27.25 146.199219 C 27.730469 146.320312 28.207031 146.347656 28.746094 146.289062 C 29.886719 146.199219 30.933594 145.75 32.070312 145.871094 C 32.640625 145.929688 33.175781 146.109375 33.714844 146.289062 C 34.554688 146.976562 35.453125 147.667969 36.109375 149.582031 C 36.109375 149.761719 36.441406 151.40625 36.46875 152.277344 Z M 32.609375 139.613281 C 32.609375 139.585938 32.640625 139.585938 32.609375 139.585938 C 32.371094 137.398438 34.136719 135.8125 35.125 134.046875 C 35.960938 136.472656 36.171875 138.835938 36.679688 141.558594 C 37.277344 144.972656 38.355469 148.203125 38.773438 151.675781 C 38.085938 153.054688 37.429688 154.460938 36.621094 155.6875 C 37.21875 150.210938 35.992188 144.644531 32.609375 139.613281 Z M 26.441406 132.519531 C 25.542969 131.53125 24.855469 130.304688 24.40625 129.226562 C 23.417969 126.804688 24.136719 125.304688 25.125 123.121094 C 25.425781 122.492188 26.113281 118.929688 27.402344 118.78125 C 27.042969 118.8125 26.863281 121.414062 26.863281 121.835938 C 26.863281 122.882812 26.773438 123.898438 26.800781 124.917969 C 26.832031 125.636719 27.101562 126.324219 27.132812 127.101562 C 27.191406 128.449219 26.890625 128.839844 26.472656 130.066406 C 26.234375 130.8125 26.351562 131.980469 26.441406 132.519531 Z M 17.253906 134.644531 C 18.089844 134.914062 18.71875 134.4375 19.46875 134.105469 C 20.574219 133.597656 21.683594 133.597656 22.820312 133.449219 C 22.671875 133.507812 22.519531 133.566406 22.371094 133.6875 C 19.796875 135.273438 17.972656 136.050781 14.976562 135.78125 C 15.515625 135.574219 15.757812 135.363281 16.234375 134.824219 C 17.371094 133.65625 18.179688 132.910156 19.886719 132.730469 C 20.726562 132.640625 21.503906 132.820312 22.253906 133.058594 C 21.625 133.117188 20.996094 133.238281 20.425781 133.386719 C 19.320312 133.71875 18.390625 134.585938 17.253906 134.644531 Z M 19.648438 125.664062 C 19.679688 126.472656 19.738281 127.25 19.855469 128 C 19.4375 127.132812 19.050781 126.113281 18.628906 125.367188 C 18.179688 124.617188 17.820312 123.839844 17.582031 122.972656 C 17.582031 122.941406 17.015625 120.667969 17.253906 120.398438 C 17.582031 120.007812 18.75 121.832031 18.929688 122.253906 C 19.46875 123.332031 19.589844 124.46875 19.648438 125.664062 Z M 6.804688 128.269531 C 7.496094 127.492188 8.421875 127.339844 9.203125 126.683594 C 10.667969 125.425781 12.195312 124.917969 14.082031 125.695312 C 14.230469 125.753906 14.378906 125.816406 14.527344 125.90625 C 13.871094 125.726562 13.210938 125.726562 12.523438 126.144531 C 11.597656 126.683594 11.058594 127.640625 10.039062 128.121094 C 9.082031 128.570312 8.183594 128.449219 7.226562 128.839844 C 6.449219 129.136719 5.609375 129.644531 6.804688 128.269531 Z M 6.804688 128.269531 " fill-opacity="1" fill-rule="nonzero"/></g><g clip-path="url(#aa2c742f32)"><path fill="#43302a" d="M 120.460938 177.300781 C 120.492188 176.699219 120.191406 176.042969 120.222656 175.414062 C 120.222656 174.996094 120.3125 174.574219 120.253906 174.15625 C 120.042969 172.871094 119.085938 172.03125 117.976562 171.492188 C 118.007812 171.492188 118.039062 171.523438 118.097656 171.523438 C 118.785156 171.703125 119.472656 171.820312 120.164062 171.910156 C 120.132812 171.941406 124.710938 173.558594 126.988281 172.089844 C 127.136719 172 127.046875 171.820312 126.898438 171.792969 C 124.921875 171.164062 123.484375 171.492188 121.480469 171.582031 C 118.695312 171.671875 115.820312 170.59375 113.128906 169.816406 C 113.246094 169.757812 113.367188 169.726562 113.488281 169.667969 C 113.605469 169.636719 115.074219 169.605469 116.839844 169.039062 C 118.15625 168.617188 119.355469 168.109375 120.371094 167.210938 C 120.460938 167.121094 120.433594 166.972656 120.3125 166.972656 C 119.144531 166.734375 118.039062 166.761719 116.898438 167.152344 C 115.285156 167.75 114.144531 169.128906 112.5 169.636719 C 110.671875 169.128906 108.878906 168.558594 107.023438 168.109375 C 107.203125 168.109375 107.351562 168.082031 107.5 168.050781 C 109.566406 168.019531 111.960938 167.8125 113.398438 166.3125 C 114.355469 165.265625 114.925781 163.710938 115.640625 162.511719 C 116.210938 161.554688 116.269531 160.714844 116.121094 159.667969 C 116.089844 159.488281 115.820312 159.519531 115.730469 159.640625 C 114.535156 161.734375 112.46875 162.722656 110.613281 164.097656 C 108.90625 165.386719 108.128906 167.75 105.882812 167.871094 C 104.179688 167.511719 102.441406 167.332031 100.707031 167.453125 C 100.796875 167.390625 100.886719 167.300781 100.976562 167.242188 C 103.308594 165.984375 106.152344 165.507812 106.484375 162.332031 C 106.8125 159.128906 106.84375 155.925781 104.71875 153.351562 C 104.65625 153.261719 104.417969 153.234375 104.417969 153.414062 C 104.476562 156.015625 104.6875 159.429688 103.191406 161.675781 C 103.160156 161.703125 97.773438 161.046875 95.585938 161.613281 C 92.027344 162.542969 93.164062 165.953125 91.1875 168.5 C 91.128906 168.558594 90.46875 168.917969 90.050781 169.1875 C 90.738281 167.691406 91.21875 166.433594 91.21875 164.878906 C 91.21875 164.007812 90.917969 163.171875 90.648438 162.363281 C 90.46875 161.855469 90.289062 161.34375 90.078125 160.835938 C 90.738281 159.371094 91.546875 158.082031 92.5625 156.855469 C 92.683594 156.707031 92.445312 156.585938 92.324219 156.644531 C 91.425781 157.066406 90.199219 157.09375 89.601562 157.992188 C 89.542969 158.054688 89.542969 158.140625 89.480469 158.230469 C 88.253906 159.128906 87.804688 160.6875 87.835938 162.214844 C 87.863281 163.230469 88.015625 164.25 88.402344 165.207031 C 88.824219 166.253906 89.632812 167.03125 90.140625 168.019531 C 89.960938 168.527344 89.75 169.039062 89.480469 169.546875 C 88.761719 170.863281 88.523438 171.792969 88.3125 173.257812 C 86.546875 175.085938 85.109375 177.269531 84.0625 179.722656 C 84.0625 179.425781 84.0625 179.125 84.0625 178.855469 C 84.214844 177.660156 84.511719 176.582031 85.261719 175.503906 C 85.800781 174.753906 86.039062 174.277344 86.097656 173.320312 C 86.21875 171.882812 85.710938 170.414062 85.769531 168.949219 C 85.859375 167.003906 86.1875 165.027344 86.398438 163.082031 C 86.429688 162.933594 86.1875 162.902344 86.097656 162.960938 C 83.253906 164.847656 82.714844 167.722656 81.667969 170.773438 C 81.28125 171.851562 81.28125 172.78125 81.699219 173.855469 C 82.175781 175.023438 82.894531 175.5625 83.253906 176.851562 C 83.613281 178.167969 83.644531 179.363281 83.675781 180.683594 C 83.496094 181.101562 83.34375 181.550781 83.226562 182 C 83.226562 182 81.609375 184.214844 81.640625 184.125 C 81.667969 183.765625 81.25 182.296875 81.25 181.9375 C 81.21875 181.339844 81.488281 180.710938 81.460938 180.082031 C 81.308594 177.480469 79.363281 175.085938 78.554688 172.660156 C 77.417969 169.1875 78.105469 168.828125 78.707031 166.941406 C 79.125 165.625 78.585938 166.222656 78.015625 167.09375 C 77.988281 167.09375 74.304688 170.445312 76.042969 174.84375 C 77.328125 178.136719 78.015625 180.351562 80.859375 182.507812 C 80.859375 182.539062 80.859375 182.597656 80.859375 182.628906 C 80.859375 182.867188 81.160156 184.273438 81.371094 184.8125 C 80.023438 186.9375 78.707031 189.035156 76.582031 190.589844 C 74.722656 191.9375 73.289062 192.535156 71.820312 193.074219 C 71.550781 193.164062 71.699219 193.523438 71.941406 193.523438 C 74.246094 193.492188 76.847656 191.1875 78.40625 189.691406 C 80.171875 188.015625 81.460938 185.742188 82.566406 183.496094 C 82.597656 183.496094 83.40625 182.867188 84.453125 182.867188 C 85.050781 182.988281 85.171875 183.316406 86.546875 185.382812 C 87.117188 186.25 88.375 186.519531 89.03125 186.789062 C 90.257812 187.265625 91.546875 187.925781 92.863281 188.164062 C 94.570312 188.464844 96.066406 187.777344 97.710938 188.734375 C 97.832031 188.792969 98.011719 188.703125 97.953125 188.554688 C 96.636719 185.679688 93.671875 184.214844 90.886719 183.257812 C 89.210938 182.6875 87.835938 182.597656 86.070312 182.507812 C 85.019531 182.476562 84.183594 182.359375 83.375 182.746094 C 83.613281 182.148438 84.453125 180.144531 84.601562 179.785156 C 84.601562 179.785156 86.070312 178.945312 88.761719 180.652344 C 89.628906 181.191406 91.425781 181.25 92.414062 181.398438 C 94.179688 181.667969 95.4375 181.070312 96.90625 179.992188 C 97.023438 179.902344 96.90625 179.785156 96.816406 179.753906 C 94.390625 179.664062 92.804688 177.480469 90.257812 177.507812 C 88.703125 177.539062 86.878906 178.078125 85.46875 178.914062 C 85.230469 179.003906 85.019531 179.125 84.8125 179.304688 C 85.351562 178.136719 85.949219 177.03125 86.609375 175.953125 C 87.59375 175.382812 88.644531 174.933594 89.691406 174.546875 C 90.707031 174.304688 92.027344 175.085938 92.683594 175.625 C 92.894531 175.804688 93.164062 175.953125 93.402344 176.074219 C 94.242188 176.519531 95.199219 176.699219 96.125 176.789062 C 97.023438 176.878906 99.121094 177.210938 101.273438 175.984375 C 101.425781 175.921875 101.542969 175.832031 101.664062 175.773438 C 103.101562 176.402344 104.65625 176.074219 106.125 176.582031 C 106.183594 176.609375 106.214844 176.519531 106.152344 176.492188 C 104.597656 174.484375 103.699219 170.445312 100.914062 169.636719 C 99.328125 169.1875 97.652344 170.085938 96.007812 169.816406 C 95.886719 169.785156 95.765625 169.785156 95.648438 169.757812 C 95.585938 169.726562 93.910156 169.605469 93.074219 169.875 C 94.71875 169.039062 96.484375 168.4375 98.3125 168.109375 C 98.878906 168.171875 99.417969 168.351562 99.957031 168.46875 C 100.375 168.648438 100.707031 168.886719 101.125 169.1875 C 101.664062 169.546875 102.234375 169.875 102.832031 170.144531 C 104.027344 170.625 105.285156 170.804688 106.574219 170.683594 C 106.753906 170.683594 106.933594 170.65625 107.113281 170.65625 C 107.230469 170.65625 107.261719 170.503906 107.203125 170.445312 C 106.273438 169.457031 105.136719 168.738281 103.789062 168.46875 C 103.21875 168.351562 102.652344 168.351562 102.054688 168.378906 C 101.335938 168.410156 100.707031 168.410156 100.015625 168.261719 C 99.75 168.140625 99.480469 168.050781 99.210938 167.960938 C 101.574219 167.632812 104.027344 167.75 106.332031 168.289062 C 106.722656 168.378906 107.113281 168.5 107.5 168.589844 C 107.621094 168.679688 107.710938 168.769531 107.828125 168.859375 C 107.828125 168.859375 108.21875 169.457031 108.457031 169.695312 C 108.789062 170.324219 108.699219 170.894531 108.789062 171.761719 C 108.847656 172.480469 108.96875 173.199219 109.265625 173.855469 C 110.046875 175.535156 111.632812 176.640625 111.660156 176.640625 C 111.691406 176.671875 111.660156 176.550781 111.660156 176.550781 C 111.421875 175.535156 112.050781 174.726562 112.019531 173.738281 C 112.019531 173.078125 111.691406 172.449219 111.363281 171.910156 C 110.703125 170.746094 109.535156 170.144531 108.546875 169.308594 C 108.429688 169.097656 108.277344 168.917969 108.070312 168.769531 C 110.734375 169.457031 116.75 171.34375 117.078125 171.460938 C 117.917969 172.089844 118.277344 172.929688 118.304688 174.035156 C 118.304688 174.394531 118.214844 174.726562 118.246094 175.085938 C 118.335938 176.25 119.773438 177.867188 119.382812 178.945312 C 119.324219 179.09375 119.5625 179.214844 119.683594 179.09375 C 120.191406 178.585938 120.433594 178.078125 120.460938 177.300781 Z M 88.375 163.890625 C 88.015625 162.003906 88.195312 160.296875 89.273438 158.859375 C 89.152344 159.910156 89.75 161.074219 90.078125 162.003906 C 90.796875 164.007812 90.796875 165.894531 90.167969 167.75 C 89.691406 166.402344 88.671875 165.386719 88.375 163.890625 Z M 81.640625 171.972656 C 81.699219 170.683594 82.65625 169.335938 83.015625 168.140625 C 83.375 166.882812 83.464844 165.835938 84.273438 164.789062 C 84.871094 164.007812 85.230469 163.621094 85.46875 163.859375 C 84.632812 165.894531 83.734375 168.082031 83.433594 170.265625 C 83.105469 172.449219 83.585938 174.304688 83.554688 176.460938 C 83.046875 174.785156 81.578125 173.796875 81.640625 171.972656 Z M 83.855469 177.121094 C 83.855469 177.089844 83.855469 177.058594 83.824219 177.058594 C 84.003906 174.996094 83.496094 173.019531 83.644531 170.953125 C 83.824219 168.589844 84.871094 166.375 85.621094 164.128906 C 85.648438 164.25 85.710938 164.429688 85.738281 164.609375 C 86.007812 166.015625 85.289062 167.8125 85.261719 169.277344 C 85.230469 171.34375 86.007812 173.289062 84.871094 175.203125 C 84.332031 176.101562 84.003906 176.671875 83.824219 177.210938 C 83.882812 177.210938 83.882812 177.148438 83.855469 177.121094 Z M 76.640625 175.113281 C 76.160156 173.738281 75.53125 172.210938 75.980469 170.714844 C 76.222656 169.964844 76.757812 169.15625 77.238281 168.378906 C 77.238281 168.410156 77.238281 168.410156 77.207031 168.441406 C 76.820312 169.9375 77.539062 171.523438 78.078125 172.871094 C 78.886719 174.875 80.292969 176.730469 80.800781 178.828125 C 81.191406 180.414062 80.832031 180.800781 80.769531 182.027344 C 78.707031 179.8125 77.507812 177.597656 76.640625 175.113281 Z M 89.542969 183.105469 C 91.308594 183.617188 93.371094 184.242188 94.71875 185.5 C 95.046875 185.800781 97.265625 188.105469 97.203125 188.136719 C 97.085938 188.226562 96.007812 187.65625 94.601562 187.777344 C 92.804688 187.957031 91.425781 187.445312 89.75 186.816406 C 88.375 186.28125 87.085938 186.011719 86.367188 184.484375 C 86.070312 183.886719 85.378906 182.925781 85.351562 182.867188 C 86.128906 183.136719 87.476562 183.675781 88.222656 184.0625 C 89.152344 184.542969 89.988281 185.203125 90.949219 185.621094 C 92.5625 186.339844 94.359375 186.25 95.828125 187.386719 C 95.855469 187.417969 95.917969 187.386719 95.886719 187.355469 C 94.539062 186.101562 92.714844 186.191406 91.128906 185.441406 C 89.121094 184.511719 87.535156 183.226562 85.410156 182.628906 C 86.878906 182.597656 88.523438 182.808594 89.542969 183.105469 Z M 93.820312 179.066406 C 94.929688 179.722656 96.097656 179.84375 96.066406 179.964844 C 95.976562 180.472656 93.28125 180.980469 92.625 180.921875 C 91.605469 180.863281 90.558594 180.710938 89.570312 180.53125 C 88.433594 180.324219 87.714844 179.453125 86.789062 179.003906 C 86.457031 178.855469 86.160156 178.796875 85.859375 178.796875 C 88.523438 177.597656 91.15625 177.507812 93.820312 179.066406 Z M 104.777344 158.023438 C 105.046875 156.167969 104.359375 154.941406 104.6875 154.25 C 104.957031 153.710938 106.125 156.617188 106.183594 157.304688 C 106.304688 158.980469 106.394531 160.957031 106.125 162.601562 C 105.703125 165.296875 103.191406 165.804688 101.214844 166.972656 C 102.054688 165.925781 102.261719 164.367188 102.710938 163.082031 C 103.429688 162.8125 104.089844 162.664062 104.957031 162.511719 C 105.136719 162.484375 105.105469 162.304688 104.957031 162.242188 C 104.507812 162.0625 103.96875 161.914062 103.460938 161.792969 C 104.269531 160.476562 104.566406 159.519531 104.777344 158.023438 Z M 96.933594 161.734375 C 98.429688 161.40625 99.988281 161.675781 101.453125 161.882812 C 102.980469 162.09375 105.195312 161.734375 102.59375 162.691406 C 100.195312 163.558594 98.429688 164.96875 96.1875 166.074219 C 94.601562 166.851562 93.132812 167.511719 91.695312 168.351562 C 93.492188 165.625 92.503906 162.753906 96.933594 161.734375 Z M 93.671875 175.742188 C 92.742188 175.292969 92.117188 174.367188 91.15625 174.035156 C 93.671875 173.320312 95.765625 173.558594 98.25 174.277344 C 99.210938 174.546875 102.234375 175.113281 102.234375 175.113281 C 102.234375 175.175781 101.632812 175.503906 101.484375 175.5625 C 99.148438 176.761719 96.066406 176.878906 93.671875 175.742188 Z M 97.054688 170.296875 C 98.492188 170.296875 99.539062 169.605469 100.976562 170.207031 C 103.550781 171.3125 103.9375 174.605469 105.855469 176.402344 C 104.566406 175.984375 103.191406 176.164062 101.902344 175.625 C 102.292969 175.414062 102.652344 175.203125 103.039062 174.964844 C 103.25 174.84375 103.011719 174.664062 102.859375 174.664062 C 101.632812 174.785156 100.464844 174.484375 99.300781 174.125 C 98.25 173.5 98.011719 171.972656 97.292969 171.015625 C 97.085938 170.714844 96.816406 170.445312 96.515625 170.234375 C 96.664062 170.296875 96.84375 170.296875 97.054688 170.296875 Z M 92.445312 170.296875 C 93.972656 169.757812 94.808594 169.9375 95.675781 170.117188 C 96.035156 170.386719 96.425781 170.625 96.753906 170.925781 C 97.382812 171.550781 97.652344 172.449219 98.160156 173.167969 C 98.402344 173.5 98.671875 173.796875 98.96875 174.035156 C 97.324219 173.5 95.675781 172.871094 93.941406 173.050781 C 92.085938 173.230469 90.558594 173.855469 90.558594 173.886719 C 89.390625 173.828125 88.074219 174.484375 87.058594 175.175781 C 88.042969 173.765625 89.210938 172.449219 90.648438 171.371094 C 91.1875 170.953125 92.324219 170.324219 92.445312 170.296875 Z M 88.433594 172.960938 C 88.792969 171.882812 89.332031 170.773438 89.839844 169.667969 C 92.175781 168.199219 94.691406 167.242188 97.085938 165.925781 C 99 164.878906 100.585938 163.828125 102.472656 163.140625 C 101.875 164.636719 101.785156 166.492188 100.316406 167.453125 C 100.316406 167.453125 100.316406 167.480469 100.285156 167.480469 C 95.527344 167.902344 91.515625 169.875 88.433594 172.960938 Z M 109.207031 166.464844 C 109.777344 165.597656 109.867188 165.238281 110.703125 164.578125 C 111.183594 164.21875 111.75 164.039062 112.199219 163.710938 C 112.859375 163.230469 113.425781 162.664062 114.085938 162.152344 C 114.324219 161.945312 115.851562 160.539062 115.671875 160.296875 C 116.242188 161.164062 114.386719 163.351562 114.144531 163.859375 C 113.277344 165.566406 112.738281 166.734375 110.761719 167.332031 C 109.867188 167.601562 108.757812 167.78125 107.710938 167.722656 C 108.097656 167.480469 108.878906 167.003906 109.207031 166.464844 Z M 110.972656 174.394531 C 110.433594 173.648438 110.523438 172.660156 110.164062 171.820312 C 109.984375 171.371094 109.746094 170.953125 109.476562 170.535156 C 109.984375 170.894531 110.492188 171.28125 110.851562 171.820312 C 111.570312 172.960938 111.511719 173.828125 111.363281 175.085938 C 111.300781 175.652344 111.273438 175.894531 111.421875 176.339844 C 109.777344 174.636719 109.355469 173.109375 109.027344 170.746094 C 108.996094 170.59375 108.96875 170.476562 108.9375 170.355469 C 109.417969 171.132812 109.957031 171.820312 110.195312 172.75 C 110.34375 173.410156 110.375 174.035156 110.972656 174.394531 C 110.972656 174.425781 110.972656 174.394531 110.972656 174.394531 Z M 117.769531 167.210938 C 118.128906 167.121094 119.804688 166.941406 119.742188 167.332031 C 119.683594 167.632812 118.007812 168.410156 117.976562 168.410156 C 117.347656 168.679688 116.660156 168.828125 116 168.949219 C 115.34375 169.039062 114.535156 169.335938 113.757812 169.488281 C 114.296875 169.1875 114.773438 168.859375 115.285156 168.46875 C 116.03125 167.902344 116.808594 167.421875 117.769531 167.210938 Z M 119.535156 177.660156 C 119.292969 176.878906 118.785156 176.402344 118.574219 175.59375 C 118.367188 174.753906 118.664062 173.945312 118.546875 173.109375 C 118.457031 172.480469 118.128906 172.0625 117.707031 171.761719 C 117.828125 171.820312 117.949219 171.882812 118.066406 171.941406 C 119.472656 172.71875 119.921875 173.917969 119.894531 175.445312 C 119.863281 176.253906 120.253906 176.878906 120.101562 177.6875 C 119.804688 179.066406 119.714844 178.289062 119.535156 177.660156 Z M 119.535156 177.660156 " fill-opacity="1" fill-rule="nonzero"/></g><g clip-path="url(#45cefeb767)"><path fill="#43302a" d="M 73.917969 57.328125 C 74.695312 56.042969 75.144531 54.632812 75.261719 53.226562 C 76.609375 57.117188 76.339844 61.550781 74.066406 65.378906 C 69.996094 72.265625 61.136719 74.539062 54.28125 70.5 C 47.394531 66.457031 45.121094 57.566406 49.160156 50.714844 C 51.40625 46.882812 55.148438 44.488281 59.21875 43.800781 C 58.050781 44.605469 57.0625 45.683594 56.285156 46.972656 C 53.410156 51.851562 55.027344 58.105469 59.90625 60.980469 C 64.785156 63.824219 71.042969 62.207031 73.917969 57.328125 Z M 73.917969 57.328125 " fill-opacity="1" fill-rule="nonzero"/></g><path fill="#43302a" d="M 89.691406 73.820312 L 88.164062 71.1875 L 85.082031 71.335938 L 87.714844 69.871094 L 87.566406 66.726562 L 89.300781 69.332031 L 92.175781 69.210938 L 89.632812 70.796875 Z M 89.691406 73.820312 " fill-opacity="1" fill-rule="nonzero"/><path fill="#43302a" d="M 37.875 103.785156 L 36.378906 101.179688 L 33.265625 101.300781 L 35.902344 99.832031 L 35.75 96.691406 L 37.488281 99.292969 L 40.363281 99.175781 L 37.847656 100.792969 Z M 37.875 103.785156 " fill-opacity="1" fill-rule="nonzero"/><path fill="#43302a" d="M 91.246094 130.003906 L 89.71875 127.371094 L 86.636719 127.519531 L 89.273438 126.054688 L 89.09375 122.910156 L 90.859375 125.515625 L 93.730469 125.394531 L 91.1875 127.011719 Z M 91.246094 130.003906 " fill-opacity="1" fill-rule="nonzero"/><path fill="#43302a" d="M 90.976562 98.90625 C 90.976562 99.039062 90.953125 99.171875 90.898438 99.292969 C 90.847656 99.417969 90.773438 99.53125 90.679688 99.625 C 90.585938 99.71875 90.472656 99.792969 90.347656 99.84375 C 90.226562 99.898438 90.09375 99.921875 89.960938 99.921875 C 89.824219 99.921875 89.695312 99.898438 89.570312 99.84375 C 89.445312 99.792969 89.335938 99.71875 89.242188 99.625 C 89.144531 99.53125 89.070312 99.417969 89.019531 99.292969 C 88.96875 99.171875 88.941406 99.039062 88.941406 98.90625 C 88.941406 98.769531 88.96875 98.640625 89.019531 98.515625 C 89.070312 98.390625 89.144531 98.28125 89.242188 98.1875 C 89.335938 98.089844 89.445312 98.015625 89.570312 97.964844 C 89.695312 97.914062 89.824219 97.886719 89.960938 97.886719 C 90.09375 97.886719 90.226562 97.914062 90.347656 97.964844 C 90.472656 98.015625 90.585938 98.089844 90.679688 98.1875 C 90.773438 98.28125 90.847656 98.390625 90.898438 98.515625 C 90.953125 98.640625 90.976562 98.769531 90.976562 98.90625 Z M 90.976562 98.90625 " fill-opacity="1" fill-rule="nonzero"/><path fill="#43302a" d="M 93.191406 143.175781 C 93.191406 143.3125 93.167969 143.441406 93.117188 143.566406 C 93.0625 143.691406 92.988281 143.800781 92.894531 143.894531 C 92.800781 143.992188 92.6875 144.066406 92.566406 144.117188 C 92.441406 144.167969 92.308594 144.195312 92.175781 144.195312 C 92.039062 144.195312 91.910156 144.167969 91.785156 144.117188 C 91.660156 144.066406 91.550781 143.992188 91.457031 143.894531 C 91.359375 143.800781 91.285156 143.691406 91.234375 143.566406 C 91.183594 143.441406 91.15625 143.3125 91.15625 143.175781 C 91.15625 143.042969 91.183594 142.910156 91.234375 142.785156 C 91.285156 142.660156 91.359375 142.550781 91.457031 142.457031 C 91.550781 142.359375 91.660156 142.289062 91.785156 142.234375 C 91.910156 142.183594 92.039062 142.160156 92.175781 142.160156 C 92.308594 142.160156 92.441406 142.183594 92.566406 142.234375 C 92.6875 142.289062 92.800781 142.359375 92.894531 142.457031 C 92.988281 142.550781 93.0625 142.660156 93.117188 142.785156 C 93.167969 142.910156 93.191406 143.042969 93.191406 143.175781 Z M 93.191406 143.175781 " fill-opacity="1" fill-rule="nonzero"/><path fill="#43302a" d="M 105.195312 110.488281 C 105.195312 110.625 105.171875 110.753906 105.117188 110.878906 C 105.066406 111.003906 104.992188 111.113281 104.898438 111.210938 C 104.800781 111.304688 104.691406 111.378906 104.566406 111.429688 C 104.441406 111.480469 104.3125 111.507812 104.179688 111.507812 C 104.042969 111.507812 103.914062 111.480469 103.789062 111.429688 C 103.664062 111.378906 103.554688 111.304688 103.457031 111.210938 C 103.363281 111.113281 103.289062 111.003906 103.238281 110.878906 C 103.1875 110.753906 103.160156 110.625 103.160156 110.488281 C 103.160156 110.355469 103.1875 110.226562 103.238281 110.101562 C 103.289062 109.976562 103.363281 109.863281 103.457031 109.769531 C 103.554688 109.675781 103.664062 109.601562 103.789062 109.550781 C 103.914062 109.496094 104.042969 109.472656 104.179688 109.472656 C 104.3125 109.472656 104.441406 109.496094 104.566406 109.550781 C 104.691406 109.601562 104.800781 109.675781 104.898438 109.769531 C 104.992188 109.863281 105.066406 109.976562 105.117188 110.101562 C 105.171875 110.226562 105.195312 110.355469 105.195312 110.488281 Z M 105.195312 110.488281 " fill-opacity="1" fill-rule="nonzero"/><path fill="#43302a" d="M 40.363281 84.269531 C 40.363281 84.402344 40.335938 84.53125 40.285156 84.65625 C 40.230469 84.78125 40.160156 84.890625 40.0625 84.988281 C 39.96875 85.082031 39.859375 85.15625 39.734375 85.207031 C 39.609375 85.261719 39.480469 85.285156 39.34375 85.285156 C 39.207031 85.285156 39.078125 85.261719 38.953125 85.207031 C 38.828125 85.15625 38.71875 85.082031 38.625 84.988281 C 38.527344 84.890625 38.453125 84.78125 38.402344 84.65625 C 38.351562 84.53125 38.324219 84.402344 38.324219 84.269531 C 38.324219 84.132812 38.351562 84.003906 38.402344 83.878906 C 38.453125 83.753906 38.527344 83.644531 38.625 83.546875 C 38.71875 83.453125 38.828125 83.378906 38.953125 83.328125 C 39.078125 83.277344 39.207031 83.25 39.34375 83.25 C 39.480469 83.25 39.609375 83.277344 39.734375 83.328125 C 39.859375 83.378906 39.96875 83.453125 40.0625 83.546875 C 40.160156 83.644531 40.230469 83.753906 40.285156 83.878906 C 40.335938 84.003906 40.363281 84.132812 40.363281 84.269531 Z M 40.363281 84.269531 " fill-opacity="1" fill-rule="nonzero"/><path fill="#43302a" d="M 25.84375 105.910156 C 25.84375 106.042969 25.816406 106.175781 25.765625 106.300781 C 25.714844 106.425781 25.640625 106.535156 25.546875 106.628906 C 25.449219 106.726562 25.339844 106.796875 25.214844 106.851562 C 25.089844 106.902344 24.960938 106.925781 24.828125 106.925781 C 24.691406 106.925781 24.5625 106.902344 24.4375 106.851562 C 24.3125 106.796875 24.203125 106.726562 24.105469 106.628906 C 24.011719 106.535156 23.9375 106.425781 23.886719 106.300781 C 23.835938 106.175781 23.808594 106.042969 23.808594 105.910156 C 23.808594 105.773438 23.835938 105.644531 23.886719 105.519531 C 23.9375 105.394531 24.011719 105.285156 24.105469 105.191406 C 24.203125 105.09375 24.3125 105.019531 24.4375 104.96875 C 24.5625 104.917969 24.691406 104.890625 24.828125 104.890625 C 24.960938 104.890625 25.089844 104.917969 25.214844 104.96875 C 25.339844 105.019531 25.449219 105.09375 25.546875 105.191406 C 25.640625 105.285156 25.714844 105.394531 25.765625 105.519531 C 25.816406 105.644531 25.84375 105.773438 25.84375 105.910156 Z M 25.84375 105.910156 " fill-opacity="1" fill-rule="nonzero"/><g fill="#000000" fill-opacity="1"><g transform="translate(21.330932, 50.069666)"><g><path d="M 10.828125 -26.6875 C 10.273438 -26.375 9.894531 -26.109375 9.6875 -25.890625 C 9.488281 -25.671875 9.410156 -25.394531 9.453125 -25.0625 C 9.503906 -24.726562 9.679688 -24.242188 9.984375 -23.609375 L 16.078125 -11.15625 C 16.378906 -10.519531 16.644531 -10.082031 16.875 -9.84375 C 17.113281 -9.601562 17.382812 -9.488281 17.6875 -9.5 C 17.988281 -9.519531 18.429688 -9.65625 19.015625 -9.90625 L 19.265625 -9.40625 C 18.429688 -9.050781 17.144531 -8.453125 15.40625 -7.609375 C 13.726562 -6.785156 12.425781 -6.117188 11.5 -5.609375 L 11.25 -6.109375 C 11.789062 -6.410156 12.164062 -6.675781 12.375 -6.90625 C 12.582031 -7.144531 12.660156 -7.429688 12.609375 -7.765625 C 12.566406 -8.097656 12.394531 -8.582031 12.09375 -9.21875 L 9.140625 -15.234375 L 2.46875 -11.96875 L 5.421875 -5.953125 C 5.722656 -5.316406 5.988281 -4.878906 6.21875 -4.640625 C 6.457031 -4.398438 6.726562 -4.289062 7.03125 -4.3125 C 7.34375 -4.332031 7.789062 -4.460938 8.375 -4.703125 L 8.625 -4.203125 C 7.695312 -3.804688 6.414062 -3.207031 4.78125 -2.40625 C 3 -1.539062 1.691406 -0.878906 0.859375 -0.421875 L 0.609375 -0.921875 C 1.148438 -1.222656 1.519531 -1.488281 1.71875 -1.71875 C 1.925781 -1.945312 2.003906 -2.226562 1.953125 -2.5625 C 1.910156 -2.894531 1.738281 -3.378906 1.4375 -4.015625 L -4.65625 -16.46875 C -4.957031 -17.101562 -5.222656 -17.539062 -5.453125 -17.78125 C -5.691406 -18.019531 -5.960938 -18.125 -6.265625 -18.09375 C -6.566406 -18.070312 -7.003906 -17.941406 -7.578125 -17.703125 L -7.828125 -18.21875 C -6.941406 -18.570312 -5.609375 -19.179688 -3.828125 -20.046875 C -2.191406 -20.847656 -0.9375 -21.5 -0.0625 -22 L 0.1875 -21.484375 C -0.363281 -21.179688 -0.742188 -20.914062 -0.953125 -20.6875 C -1.160156 -20.46875 -1.238281 -20.191406 -1.1875 -19.859375 C -1.144531 -19.523438 -0.972656 -19.039062 -0.671875 -18.40625 L 2.234375 -12.484375 L 8.90625 -15.75 L 6 -21.671875 C 5.695312 -22.304688 5.425781 -22.742188 5.1875 -22.984375 C 4.957031 -23.222656 4.6875 -23.328125 4.375 -23.296875 C 4.070312 -23.265625 3.632812 -23.128906 3.0625 -22.890625 L 2.8125 -23.40625 C 3.789062 -23.8125 5.117188 -24.425781 6.796875 -25.25 C 8.535156 -26.09375 9.796875 -26.742188 10.578125 -27.203125 Z M 10.828125 -26.6875 "/></g></g></g><g fill="#000000" fill-opacity="1"><g transform="translate(42.123667, 40.2707)"><g><path d="M 16.28125 -5.671875 C 16.632812 -5.109375 16.992188 -4.722656 17.359375 -4.515625 C 17.734375 -4.304688 18.066406 -4.222656 18.359375 -4.265625 L 18.46875 -3.71875 C 17.351562 -3.550781 15.960938 -3.296875 14.296875 -2.953125 C 12.421875 -2.578125 11.035156 -2.273438 10.140625 -2.046875 L 10.03125 -2.59375 C 10.71875 -2.757812 11.191406 -2.941406 11.453125 -3.140625 C 11.722656 -3.335938 11.820312 -3.609375 11.75 -3.953125 C 11.6875 -4.273438 11.488281 -4.691406 11.15625 -5.203125 L 8.609375 -9.375 L 2.640625 -8.171875 L 2.3125 -6.140625 C 2.0625 -4.722656 2.007812 -3.65625 2.15625 -2.9375 C 2.289062 -2.257812 2.585938 -1.828125 3.046875 -1.640625 C 3.503906 -1.460938 4.140625 -1.4375 4.953125 -1.5625 L 5.0625 -1.015625 C 3.8125 -0.816406 2.675781 -0.617188 1.65625 -0.421875 C 0.8125 -0.242188 0.125 -0.078125 -0.40625 0.078125 L -0.515625 -0.46875 C 0.347656 -0.8125 0.941406 -1.929688 1.265625 -3.828125 L 4.265625 -21.109375 C 4.484375 -21.117188 4.8125 -21.171875 5.25 -21.265625 C 5.675781 -21.347656 5.976562 -21.421875 6.15625 -21.484375 Z M 8.296875 -9.875 L 4.109375 -16.734375 L 2.734375 -8.765625 Z M 8.296875 -9.875 "/></g></g></g><g fill="#000000" fill-opacity="1"><g transform="translate(61.319719, 36.603275)"><g><path d="M 10.296875 -18.9375 C 9.628906 -18.914062 9.140625 -18.859375 8.828125 -18.765625 C 8.515625 -18.671875 8.296875 -18.460938 8.171875 -18.140625 C 8.054688 -17.828125 7.988281 -17.316406 7.96875 -16.609375 L 7.5625 -2.40625 C 7.539062 -1.8125 7.570312 -1.378906 7.65625 -1.109375 C 7.75 -0.835938 7.910156 -0.648438 8.140625 -0.546875 C 8.367188 -0.453125 8.742188 -0.394531 9.265625 -0.375 L 10.640625 -0.34375 C 11.898438 -0.300781 13.007812 -0.832031 13.96875 -1.9375 C 14.925781 -3.050781 15.570312 -4.546875 15.90625 -6.421875 L 16.5625 -6.40625 C 16.476562 -5.769531 16.421875 -4.953125 16.390625 -3.953125 C 16.335938 -2.160156 16.363281 -0.6875 16.46875 0.46875 C 15.195312 0.382812 13.0625 0.296875 10.0625 0.203125 C 6 0.0859375 2.960938 0.03125 0.953125 0.03125 L 0.96875 -0.53125 C 1.582031 -0.550781 2.035156 -0.613281 2.328125 -0.71875 C 2.617188 -0.820312 2.816406 -1.03125 2.921875 -1.34375 C 3.035156 -1.65625 3.101562 -2.164062 3.125 -2.875 L 3.53125 -16.734375 C 3.550781 -17.441406 3.507812 -17.957031 3.40625 -18.28125 C 3.3125 -18.601562 3.125 -18.820312 2.84375 -18.9375 C 2.5625 -19.050781 2.113281 -19.132812 1.5 -19.1875 L 1.515625 -19.75 C 2.460938 -19.664062 3.929688 -19.59375 5.921875 -19.53125 C 7.828125 -19.476562 9.289062 -19.46875 10.3125 -19.5 Z M 10.296875 -18.9375 "/></g></g></g><g fill="#000000" fill-opacity="1"><g transform="translate(79.309456, 37.132169)"><g><path d="M 17.109375 2.046875 C 17.191406 2.703125 17.351562 3.203125 17.59375 3.546875 C 17.832031 3.898438 18.09375 4.125 18.375 4.21875 L 18.234375 4.765625 C 17.148438 4.429688 15.785156 4.046875 14.140625 3.609375 C 12.296875 3.128906 10.914062 2.796875 10 2.609375 L 10.140625 2.0625 C 10.835938 2.21875 11.347656 2.265625 11.671875 2.203125 C 11.992188 2.140625 12.195312 1.9375 12.28125 1.59375 C 12.363281 1.269531 12.375 0.8125 12.3125 0.21875 L 11.84375 -4.640625 L 5.9375 -6.171875 L 4.765625 -4.5 C 3.910156 -3.34375 3.394531 -2.410156 3.21875 -1.703125 C 3.039062 -1.035156 3.117188 -0.515625 3.453125 -0.140625 C 3.796875 0.222656 4.359375 0.523438 5.140625 0.765625 L 5 1.3125 C 3.78125 0.9375 2.664062 0.617188 1.65625 0.359375 C 0.832031 0.140625 0.144531 -0.015625 -0.40625 -0.109375 L -0.265625 -0.65625 C 0.660156 -0.582031 1.6875 -1.328125 2.8125 -2.890625 L 13.109375 -17.09375 C 13.304688 -17.019531 13.625 -16.925781 14.0625 -16.8125 C 14.476562 -16.695312 14.78125 -16.628906 14.96875 -16.609375 Z M 11.796875 -5.234375 L 11.03125 -13.234375 L 6.3125 -6.65625 Z M 11.796875 -5.234375 "/></g></g></g><g fill="#000000" fill-opacity="1"><g transform="translate(98.168, 42.259996)"><g><path d="M 17.5625 -12.5 C 16.957031 -12.78125 16.492188 -12.941406 16.171875 -12.984375 C 15.847656 -13.023438 15.5625 -12.929688 15.3125 -12.703125 C 15.0625 -12.484375 14.769531 -12.0625 14.4375 -11.4375 L 7.84375 1.140625 C 7.570312 1.671875 7.410156 2.078125 7.359375 2.359375 C 7.316406 2.648438 7.378906 2.890625 7.546875 3.078125 C 7.710938 3.273438 8.023438 3.492188 8.484375 3.734375 L 9.703125 4.375 C 10.816406 4.957031 12.046875 4.957031 13.390625 4.375 C 14.742188 3.800781 15.976562 2.742188 17.09375 1.203125 L 17.671875 1.5 C 17.328125 2.03125 16.921875 2.738281 16.453125 3.625 C 15.628906 5.21875 15.007812 6.554688 14.59375 7.640625 C 13.476562 7.015625 11.59375 6.003906 8.9375 4.609375 C 5.34375 2.722656 2.644531 1.332031 0.84375 0.4375 L 1.109375 -0.0625 C 1.660156 0.195312 2.085938 0.34375 2.390625 0.375 C 2.703125 0.40625 2.976562 0.304688 3.21875 0.078125 C 3.46875 -0.148438 3.753906 -0.578125 4.078125 -1.203125 L 10.515625 -13.484375 C 10.847656 -14.109375 11.039062 -14.585938 11.09375 -14.921875 C 11.144531 -15.253906 11.066406 -15.535156 10.859375 -15.765625 C 10.660156 -15.992188 10.296875 -16.269531 9.765625 -16.59375 L 10.03125 -17.09375 C 10.84375 -16.59375 12.128906 -15.882812 13.890625 -14.96875 C 15.578125 -14.082031 16.890625 -13.425781 17.828125 -13 Z M 17.5625 -12.5 "/></g></g></g><g fill="#000000" fill-opacity="1"><g transform="translate(10.117361, 197.506714)"><g><path d="M 10.71875 0.328125 C 11.832031 1.640625 12.441406 2.816406 12.546875 3.859375 C 12.648438 4.898438 12.378906 5.738281 11.734375 6.375 C 10.859375 7.238281 9.835938 7.5625 8.671875 7.34375 C 7.515625 7.132812 6.328125 6.414062 5.109375 5.1875 C 4.835938 4.90625 4.617188 4.664062 4.453125 4.46875 C 3.859375 3.832031 3.269531 3.21875 2.6875 2.625 C 1.71875 1.644531 0.976562 0.929688 0.46875 0.484375 L 0.75 0.203125 C 1.082031 0.484375 1.347656 0.671875 1.546875 0.765625 C 1.753906 0.867188 1.960938 0.863281 2.171875 0.75 C 2.390625 0.644531 2.675781 0.414062 3.03125 0.0625 L 10.0625 -6.875 C 10.414062 -7.226562 10.644531 -7.507812 10.75 -7.71875 C 10.863281 -7.9375 10.875 -8.144531 10.78125 -8.34375 C 10.695312 -8.550781 10.507812 -8.816406 10.21875 -9.140625 L 10.5 -9.421875 C 10.945312 -8.910156 11.644531 -8.175781 12.59375 -7.21875 L 14.15625 -5.671875 C 14.351562 -5.492188 14.570312 -5.28125 14.8125 -5.03125 C 15.9375 -3.894531 16.585938 -2.828125 16.765625 -1.828125 C 16.953125 -0.828125 16.710938 0 16.046875 0.65625 C 15.492188 1.195312 14.742188 1.460938 13.796875 1.453125 C 12.859375 1.441406 11.84375 1.0625 10.75 0.3125 Z M 14.359375 -4.953125 C 14.109375 -5.203125 13.890625 -5.351562 13.703125 -5.40625 C 13.523438 -5.46875 13.328125 -5.4375 13.109375 -5.3125 C 12.890625 -5.1875 12.613281 -4.957031 12.28125 -4.625 L 9.078125 -1.46875 L 9.671875 -0.859375 C 10.285156 -0.242188 10.921875 -0.0195312 11.578125 -0.1875 C 12.234375 -0.351562 12.914062 -0.785156 13.625 -1.484375 C 14.320312 -2.171875 14.738281 -2.800781 14.875 -3.375 C 15.007812 -3.945312 14.835938 -4.472656 14.359375 -4.953125 Z M 5.03125 4.453125 C 6.332031 5.765625 7.804688 5.601562 9.453125 3.96875 C 10.203125 3.226562 10.582031 2.476562 10.59375 1.71875 C 10.613281 0.96875 10.222656 0.1875 9.421875 -0.625 L 8.828125 -1.21875 L 5.25 2.3125 C 4.90625 2.644531 4.675781 2.914062 4.5625 3.125 C 4.457031 3.332031 4.441406 3.535156 4.515625 3.734375 C 4.585938 3.929688 4.757812 4.171875 5.03125 4.453125 Z M 5.03125 4.453125 "/></g></g></g><g fill="#000000" fill-opacity="1"><g transform="translate(22.761234, 209.758786)"><g><path d="M 14.140625 -8.3125 C 15.347656 -7.59375 16.257812 -6.71875 16.875 -5.6875 C 17.488281 -4.65625 17.769531 -3.523438 17.71875 -2.296875 C 17.675781 -1.066406 17.273438 0.1875 16.515625 1.46875 C 15.765625 2.726562 14.84375 3.6875 13.75 4.34375 C 12.65625 5.007812 11.488281 5.335938 10.25 5.328125 C 9.019531 5.316406 7.816406 4.960938 6.640625 4.265625 C 5.421875 3.546875 4.503906 2.671875 3.890625 1.640625 C 3.285156 0.609375 3.003906 -0.515625 3.046875 -1.734375 C 3.097656 -2.960938 3.503906 -4.222656 4.265625 -5.515625 C 5.015625 -6.765625 5.929688 -7.722656 7.015625 -8.390625 C 8.109375 -9.066406 9.273438 -9.394531 10.515625 -9.375 C 11.753906 -9.363281 12.960938 -9.007812 14.140625 -8.3125 Z M 13.890625 -8.046875 C 13.253906 -8.421875 12.550781 -8.492188 11.78125 -8.265625 C 11.007812 -8.046875 10.21875 -7.554688 9.40625 -6.796875 C 8.601562 -6.046875 7.851562 -5.078125 7.15625 -3.890625 C 6.445312 -2.710938 5.972656 -1.585938 5.734375 -0.515625 C 5.492188 0.554688 5.472656 1.488281 5.671875 2.28125 C 5.878906 3.070312 6.285156 3.648438 6.890625 4.015625 C 7.523438 4.378906 8.226562 4.453125 9 4.234375 C 9.78125 4.015625 10.570312 3.519531 11.375 2.75 C 12.175781 1.988281 12.925781 1.019531 13.625 -0.15625 C 14.320312 -1.34375 14.789062 -2.46875 15.03125 -3.53125 C 15.28125 -4.601562 15.300781 -5.535156 15.09375 -6.328125 C 14.882812 -7.117188 14.484375 -7.691406 13.890625 -8.046875 Z M 13.890625 -8.046875 "/></g></g></g><g fill="#000000" fill-opacity="1"><g transform="translate(40.365369, 219.511)"><g><path d="M 10.28125 -11.796875 C 12.769531 -11.117188 14.484375 -10.039062 15.421875 -8.5625 C 16.359375 -7.09375 16.535156 -5.28125 15.953125 -3.125 C 15.566406 -1.726562 14.929688 -0.59375 14.046875 0.28125 C 13.160156 1.15625 12.0625 1.722656 10.75 1.984375 C 9.445312 2.253906 8.003906 2.175781 6.421875 1.75 L 5.234375 1.40625 C 4.492188 1.175781 3.960938 1.015625 3.640625 0.921875 C 2.304688 0.554688 1.304688 0.304688 0.640625 0.171875 L 0.75 -0.203125 C 1.175781 -0.117188 1.5 -0.0820312 1.71875 -0.09375 C 1.945312 -0.113281 2.125 -0.226562 2.25 -0.4375 C 2.382812 -0.644531 2.515625 -0.988281 2.640625 -1.46875 L 5.234375 -11 C 5.367188 -11.476562 5.429688 -11.835938 5.421875 -12.078125 C 5.410156 -12.316406 5.3125 -12.5 5.125 -12.625 C 4.945312 -12.757812 4.648438 -12.898438 4.234375 -13.046875 L 4.328125 -13.421875 C 4.867188 -13.242188 5.640625 -13.015625 6.640625 -12.734375 L 7.25 -12.578125 L 8.03125 -12.375 C 9.070312 -12.113281 9.820312 -11.921875 10.28125 -11.796875 Z M 10.171875 -11.46875 C 9.765625 -11.570312 9.453125 -11.601562 9.234375 -11.5625 C 9.023438 -11.53125 8.847656 -11.410156 8.703125 -11.203125 C 8.554688 -10.992188 8.421875 -10.660156 8.296875 -10.203125 L 5.6875 -0.59375 C 5.5625 -0.144531 5.507812 0.203125 5.53125 0.453125 C 5.550781 0.710938 5.644531 0.914062 5.8125 1.0625 C 5.976562 1.207031 6.269531 1.335938 6.6875 1.453125 C 8.226562 1.867188 9.472656 1.625 10.421875 0.71875 C 11.367188 -0.1875 12.144531 -1.734375 12.75 -3.921875 C 13.34375 -6.109375 13.4375 -7.804688 13.03125 -9.015625 C 12.632812 -10.234375 11.679688 -11.050781 10.171875 -11.46875 Z M 10.171875 -11.46875 "/></g></g></g><g fill="#000000" fill-opacity="1"><g transform="translate(59.413413, 223.968132)"><g><path d="M 11.046875 -13.828125 C 11.660156 -13.816406 12.164062 -13.828125 12.5625 -13.859375 L 12.546875 -13.46875 C 11.929688 -13.238281 11.285156 -12.484375 10.609375 -11.203125 L 8.15625 -6.59375 L 8.0625 -1.953125 C 8.050781 -1.453125 8.078125 -1.082031 8.140625 -0.84375 C 8.210938 -0.613281 8.347656 -0.457031 8.546875 -0.375 C 8.753906 -0.300781 9.078125 -0.242188 9.515625 -0.203125 L 9.515625 0.1875 C 8.796875 0.132812 7.773438 0.09375 6.453125 0.0625 C 5.023438 0.0390625 3.992188 0.0390625 3.359375 0.0625 L 3.359375 -0.328125 C 3.804688 -0.347656 4.132812 -0.394531 4.34375 -0.46875 C 4.550781 -0.539062 4.691406 -0.691406 4.765625 -0.921875 C 4.847656 -1.148438 4.894531 -1.515625 4.90625 -2.015625 L 4.96875 -5.375 L 1.265625 -12.5625 C 0.859375 -13.320312 0.476562 -13.703125 0.125 -13.703125 L 0.140625 -14.109375 C 0.722656 -14.035156 1.503906 -13.988281 2.484375 -13.96875 C 3.722656 -13.945312 4.972656 -13.953125 6.234375 -13.984375 L 6.21875 -13.578125 C 5.75 -13.585938 5.378906 -13.550781 5.109375 -13.46875 C 4.835938 -13.382812 4.703125 -13.226562 4.703125 -13 C 4.691406 -12.882812 4.734375 -12.738281 4.828125 -12.5625 L 7.75 -6.671875 L 9.359375 -9.75 C 9.898438 -10.78125 10.175781 -11.597656 10.1875 -12.203125 C 10.195312 -12.648438 10.054688 -12.972656 9.765625 -13.171875 C 9.484375 -13.378906 9.078125 -13.503906 8.546875 -13.546875 L 8.5625 -13.9375 C 9.46875 -13.882812 10.296875 -13.847656 11.046875 -13.828125 Z M 11.046875 -13.828125 "/></g></g></g><g fill="#000000" fill-opacity="1"><g transform="translate(75.281971, 223.684001)"><g/></g></g><g fill="#000000" fill-opacity="1"><g transform="translate(83.410515, 222.576039)"><g><path d="M 11.046875 -5.34375 C 11.347656 -4.976562 11.632812 -4.734375 11.90625 -4.609375 C 12.1875 -4.492188 12.429688 -4.460938 12.640625 -4.515625 L 12.765625 -4.140625 C 11.992188 -3.929688 11.03125 -3.640625 9.875 -3.265625 C 8.582031 -2.847656 7.625 -2.515625 7 -2.265625 L 6.875 -2.640625 C 7.351562 -2.828125 7.679688 -3 7.859375 -3.15625 C 8.035156 -3.320312 8.082031 -3.523438 8 -3.765625 C 7.925781 -3.984375 7.742188 -4.257812 7.453125 -4.59375 L 5.328125 -7.328125 L 1.203125 -5.984375 L 1.125 -4.546875 C 1.0625 -3.515625 1.109375 -2.753906 1.265625 -2.265625 C 1.421875 -1.796875 1.671875 -1.515625 2.015625 -1.421875 C 2.359375 -1.335938 2.8125 -1.367188 3.375 -1.515625 L 3.5 -1.140625 C 2.632812 -0.898438 1.847656 -0.664062 1.140625 -0.4375 C 0.554688 -0.25 0.0820312 -0.0703125 -0.28125 0.09375 L -0.40625 -0.28125 C 0.175781 -0.59375 0.503906 -1.429688 0.578125 -2.796875 L 1.296875 -15.28125 C 1.453125 -15.3125 1.679688 -15.375 1.984375 -15.46875 C 2.285156 -15.570312 2.492188 -15.65625 2.609375 -15.71875 Z M 5.078125 -7.671875 L 1.546875 -12.171875 L 1.21875 -6.421875 Z M 5.078125 -7.671875 "/></g></g></g><g fill="#000000" fill-opacity="1"><g transform="translate(99.780959, 216.784664)"><g><path d="M 11.609375 -8.1875 C 11.515625 -7.644531 11.335938 -7.191406 11.078125 -6.828125 C 10.828125 -6.460938 10.453125 -6.125 9.953125 -5.8125 C 9.296875 -5.414062 8.691406 -5.234375 8.140625 -5.265625 C 7.585938 -5.304688 7.054688 -5.628906 6.546875 -6.234375 L 5.1875 -7.734375 C 4.53125 -8.460938 3.976562 -8.957031 3.53125 -9.21875 C 3.082031 -9.488281 2.613281 -9.472656 2.125 -9.171875 L 1.015625 -8.484375 L 3.421875 -4.59375 C 3.679688 -4.164062 3.898438 -3.875 4.078125 -3.71875 C 4.265625 -3.5625 4.460938 -3.503906 4.671875 -3.546875 C 4.890625 -3.585938 5.203125 -3.707031 5.609375 -3.90625 L 5.8125 -3.578125 C 5.175781 -3.234375 4.316406 -2.726562 3.234375 -2.0625 C 2.015625 -1.3125 1.128906 -0.742188 0.578125 -0.359375 L 0.375 -0.6875 C 0.71875 -0.945312 0.957031 -1.164062 1.09375 -1.34375 C 1.226562 -1.519531 1.265625 -1.722656 1.203125 -1.953125 C 1.148438 -2.179688 0.992188 -2.507812 0.734375 -2.9375 L -4.453125 -11.34375 C -4.710938 -11.769531 -4.929688 -12.0625 -5.109375 -12.21875 C -5.296875 -12.375 -5.5 -12.429688 -5.71875 -12.390625 C -5.9375 -12.347656 -6.234375 -12.222656 -6.609375 -12.015625 L -6.828125 -12.359375 C -6.222656 -12.671875 -5.347656 -13.175781 -4.203125 -13.875 L -2.34375 -15.046875 C -2.125 -15.210938 -1.867188 -15.382812 -1.578125 -15.5625 C -0.015625 -16.53125 1.3125 -17 2.40625 -16.96875 C 3.5 -16.945312 4.335938 -16.460938 4.921875 -15.515625 C 5.421875 -14.710938 5.5625 -13.820312 5.34375 -12.84375 C 5.132812 -11.875 4.410156 -10.894531 3.171875 -9.90625 C 4.234375 -10.4375 5.117188 -10.679688 5.828125 -10.640625 C 6.535156 -10.597656 7.1875 -10.273438 7.78125 -9.671875 L 9.234375 -8.15625 C 9.597656 -7.757812 9.894531 -7.503906 10.125 -7.390625 C 10.363281 -7.285156 10.585938 -7.300781 10.796875 -7.4375 C 10.929688 -7.53125 11.03125 -7.632812 11.09375 -7.75 C 11.15625 -7.863281 11.207031 -8.023438 11.25 -8.234375 Z M -1.609375 -15.109375 C -1.898438 -14.921875 -2.09375 -14.742188 -2.1875 -14.578125 C -2.289062 -14.410156 -2.304688 -14.207031 -2.234375 -13.96875 C -2.171875 -13.726562 -2.015625 -13.40625 -1.765625 -13 L 0.8125 -8.828125 L 1.546875 -9.28125 C 2.472656 -9.851562 2.957031 -10.488281 3 -11.1875 C 3.039062 -11.882812 2.785156 -12.679688 2.234375 -13.578125 C 1.660156 -14.492188 1.066406 -15.09375 0.453125 -15.375 C -0.160156 -15.65625 -0.847656 -15.566406 -1.609375 -15.109375 Z M -1.609375 -15.109375 "/></g></g></g><g fill="#000000" fill-opacity="1"><g transform="translate(114.700179, 206.970147)"><g><path d="M -1.0625 -18.984375 C -0.226562 -18.035156 0.539062 -17.210938 1.25 -16.515625 C 1.6875 -16.085938 2.0625 -15.753906 2.375 -15.515625 L 2.0625 -15.1875 C 0.675781 -16.09375 -0.445312 -16.582031 -1.3125 -16.65625 C -2.1875 -16.738281 -2.957031 -16.4375 -3.625 -15.75 L -3.953125 -15.421875 L 4.15625 -7.4375 C 4.550781 -7.050781 4.878906 -6.804688 5.140625 -6.703125 C 5.398438 -6.609375 5.660156 -6.632812 5.921875 -6.78125 C 6.179688 -6.925781 6.535156 -7.210938 6.984375 -7.640625 L 7.265625 -7.359375 C 6.066406 -6.203125 5.164062 -5.320312 4.5625 -4.71875 C 3.976562 -4.125 3.140625 -3.242188 2.046875 -2.078125 L 1.765625 -2.359375 C 2.191406 -2.816406 2.472656 -3.175781 2.609375 -3.4375 C 2.753906 -3.695312 2.78125 -3.957031 2.6875 -4.21875 C 2.59375 -4.488281 2.347656 -4.816406 1.953125 -5.203125 L -6.15625 -13.1875 L -6.46875 -12.875 C -6.925781 -12.414062 -7.207031 -11.925781 -7.3125 -11.40625 C -7.414062 -10.894531 -7.351562 -10.300781 -7.125 -9.625 C -6.894531 -8.957031 -6.460938 -8.148438 -5.828125 -7.203125 L -6.140625 -6.875 C -6.390625 -7.175781 -6.734375 -7.539062 -7.171875 -7.96875 C -7.878906 -8.664062 -8.71875 -9.425781 -9.6875 -10.25 C -8.800781 -11.082031 -7.34375 -12.53125 -5.3125 -14.59375 C -3.28125 -16.644531 -1.863281 -18.109375 -1.0625 -18.984375 Z M -1.0625 -18.984375 "/></g></g></g></svg>