<svg xmlns="http://www.w3.org/2000/svg" xmlns:xlink="http://www.w3.org/1999/xlink" width="180" zoomAndPan="magnify" viewBox="0 0 135 235.499993" height="314" preserveAspectRatio="xMidYMid meet" version="1.0"><defs><g/><clipPath id="7b82f00f9d"><path d="M 5.675781 116 L 52 116 L 52 188 L 5.675781 188 Z M 5.675781 116 " clip-rule="nonzero"/></clipPath><clipPath id="74aa12409d"><path d="M 71 152 L 127.667969 152 L 127.667969 192.71875 L 71 192.71875 Z M 71 152 " clip-rule="nonzero"/></clipPath><clipPath id="2d96cf6f8b"><path d="M 47 43.035156 L 77 43.035156 L 77 72 L 47 72 Z M 47 43.035156 " clip-rule="nonzero"/></clipPath></defs><path fill="#ffffff" d="M 91.484375 108.359375 C 85.320312 109.585938 78.917969 108.808594 77.179688 108.539062 C 77.121094 111.113281 76.402344 113.65625 76.492188 116.171875 C 78.199219 114.433594 83.015625 114.316406 83.015625 114.316406 C 92.144531 114.554688 91.484375 108.359375 91.484375 108.359375 Z M 91.484375 108.359375 " fill-opacity="1" fill-rule="nonzero"/><path fill="#ffffff" d="M 75.953125 117.367188 C 75.476562 114.464844 76.550781 111.351562 76.730469 108.480469 C 76.640625 104.050781 74.816406 99.113281 72.332031 99.292969 C 69.820312 99.472656 68.800781 105.726562 68.234375 109.289062 C 67.933594 111.082031 67.695312 113.296875 67.542969 115.035156 C 67.875 117.546875 67.425781 120.210938 67.15625 122.664062 C 66.765625 125.925781 66.4375 129.1875 67.1875 132.449219 C 67.246094 132.6875 66.828125 132.777344 66.765625 132.539062 C 65.808594 129.1875 66.226562 125.804688 66.648438 122.425781 C 66.617188 122.304688 67.066406 119.761719 62.339844 115.511719 C 61.46875 114.734375 60.78125 113.714844 60.332031 112.640625 C 59.792969 111.351562 59.613281 109.945312 59.433594 108.570312 C 58.957031 104.890625 58.148438 101.238281 57.878906 97.558594 C 57.667969 94.683594 57.820312 89.179688 57.820312 89.179688 C 57.820312 89.179688 57.96875 77.746094 57.820312 76.3125 C 57.667969 74.875 56.800781 70.683594 54.289062 70.773438 C 51.773438 70.863281 51.324219 83.640625 51.234375 84.71875 C 51.144531 85.796875 51.234375 84.71875 50.847656 93.488281 C 50.457031 102.253906 51.234375 110.183594 51.234375 110.183594 C 51.234375 110.183594 51.207031 110.246094 51.175781 110.335938 C 51.355469 112.667969 51.207031 115.035156 51.027344 117.367188 C 50.996094 117.605469 50.578125 117.636719 50.578125 117.367188 C 50.636719 115.542969 50.699219 113.746094 50.636719 111.949219 C 49.917969 114.316406 48.78125 118.503906 49.171875 121.078125 C 49.710938 124.820312 58.988281 145.285156 57.667969 152.707031 C 56.324219 160.128906 43.90625 187.71875 43.90625 187.71875 L 67.695312 185.027344 C 67.695312 185.027344 74.367188 163.210938 76.402344 158.84375 C 78.46875 154.472656 82.746094 148.726562 82.566406 140.4375 C 82.417969 132.628906 75.921875 120.71875 75.953125 117.367188 Z M 69.28125 153.84375 C 69.398438 153.695312 69.578125 153.664062 69.730469 153.785156 C 69.878906 153.90625 69.910156 154.085938 69.789062 154.234375 C 69.699219 154.382812 69.488281 154.414062 69.371094 154.292969 C 69.21875 154.175781 69.191406 153.996094 69.28125 153.84375 Z M 68.800781 155.070312 C 68.953125 154.863281 69.21875 154.832031 69.429688 154.984375 C 69.609375 155.132812 69.667969 155.402344 69.519531 155.609375 C 69.371094 155.789062 69.101562 155.851562 68.890625 155.699219 C 68.710938 155.550781 68.652344 155.25 68.800781 155.070312 Z M 68.234375 156.539062 C 68.414062 156.269531 68.800781 156.210938 69.070312 156.417969 C 69.339844 156.628906 69.398438 156.988281 69.191406 157.257812 C 69.011719 157.527344 68.621094 157.585938 68.351562 157.375 C 68.082031 157.167969 68.023438 156.808594 68.234375 156.539062 Z M 62.21875 179.460938 C 62.039062 179.460938 61.890625 179.339844 61.890625 179.160156 C 61.890625 178.980469 62.007812 178.832031 62.1875 178.832031 C 62.367188 178.832031 62.515625 178.953125 62.515625 179.132812 C 62.515625 179.3125 62.367188 179.460938 62.21875 179.460938 Z M 62.605469 178.324219 C 62.367188 178.324219 62.160156 178.144531 62.128906 177.90625 C 62.128906 177.664062 62.308594 177.457031 62.546875 177.425781 C 62.785156 177.425781 62.996094 177.605469 63.027344 177.84375 C 63.027344 178.085938 62.847656 178.292969 62.605469 178.324219 Z M 63.054688 176.886719 C 62.726562 176.917969 62.457031 176.648438 62.425781 176.320312 C 62.398438 175.988281 62.667969 175.71875 62.996094 175.691406 C 63.324219 175.660156 63.59375 175.929688 63.625 176.257812 C 63.625 176.589844 63.386719 176.886719 63.054688 176.886719 Z M 66.199219 173.773438 C 65.957031 174.464844 65.449219 174.941406 64.820312 175.210938 C 64.972656 175.0625 65.121094 174.851562 65.179688 174.613281 C 65.480469 173.746094 65.03125 172.816406 64.164062 172.519531 C 63.296875 172.21875 62.367188 172.667969 62.070312 173.535156 C 61.980469 173.773438 61.949219 174.015625 61.980469 174.222656 C 61.648438 173.65625 61.53125 172.9375 61.769531 172.25 C 62.1875 171.023438 63.535156 170.363281 64.761719 170.78125 C 65.988281 171.203125 66.617188 172.546875 66.199219 173.773438 Z M 65.988281 169.226562 C 64.613281 169.316406 63.445312 168.269531 63.355469 166.921875 C 63.265625 165.546875 64.3125 164.378906 65.660156 164.289062 C 67.035156 164.199219 68.203125 165.246094 68.292969 166.59375 C 68.382812 167.96875 67.335938 169.136719 65.988281 169.226562 Z M 69.820312 161.328125 C 69.21875 162.464844 67.8125 162.941406 66.675781 162.34375 C 65.539062 161.746094 65.0625 160.339844 65.660156 159.203125 C 65.988281 158.574219 66.558594 158.125 67.214844 157.976562 C 67.035156 158.125 66.886719 158.304688 66.765625 158.511719 C 66.347656 159.320312 66.675781 160.308594 67.484375 160.726562 C 68.292969 161.148438 69.308594 160.816406 69.699219 160.011719 C 69.820312 159.800781 69.878906 159.5625 69.878906 159.320312 C 70.148438 159.980469 70.148438 160.699219 69.820312 161.328125 Z M 69.820312 161.328125 " fill-opacity="1" fill-rule="nonzero"/><path fill="#ffffff" d="M 85.171875 86.785156 C 85.171875 86.785156 75.117188 88.640625 70.089844 91.542969 C 65.089844 94.445312 60.273438 100.011719 60.273438 100.011719 C 60.992188 94.117188 64.792969 90.792969 67.066406 88.878906 C 69.308594 86.964844 71.675781 86.90625 75.386719 85.46875 C 79.453125 83.882812 78.617188 78.644531 78.617188 78.644531 C 78.617188 78.644531 72.390625 80.320312 67.664062 82.207031 C 64.132812 83.613281 59.972656 87.054688 58.296875 88.609375 C 58.089844 91.691406 58.148438 94.476562 58.359375 97.585938 C 58.628906 101.269531 59.433594 104.917969 59.914062 108.597656 C 60.125 110.15625 60.332031 111.800781 61.109375 113.179688 C 61.769531 114.375 62.757812 115.300781 63.714844 116.261719 C 65.089844 117.636719 66.40625 119.074219 66.796875 120.929688 C 66.917969 119.761719 67.035156 118.625 67.035156 117.457031 C 66.4375 116.082031 64.910156 112.578125 64.074219 110.066406 C 62.996094 106.863281 66.828125 102.316406 66.828125 102.316406 C 66.828125 102.316406 71.046875 96.179688 73.5 95.105469 C 75.59375 94.175781 79.632812 94.296875 83.074219 91.902344 C 86.546875 89.476562 85.171875 86.785156 85.171875 86.785156 Z M 85.171875 86.785156 " fill-opacity="1" fill-rule="nonzero"/><g clip-path="url(#7b82f00f9d)"><path fill="#ffffff" d="M 5.871094 129.097656 C 5.871094 129.277344 6.167969 129.457031 6.257812 129.246094 C 6.976562 127.992188 9.699219 128.109375 10.957031 127.273438 C 11.347656 127.003906 11.617188 126.675781 11.976562 126.375 C 13.082031 125.507812 14.1875 125.207031 15.476562 125.507812 C 15.863281 125.746094 22.507812 130.144531 25.320312 132.238281 C 25.023438 132.179688 24.722656 132.179688 24.421875 132.210938 C 22.808594 131.910156 21.28125 131.222656 19.605469 131.523438 C 18.828125 131.671875 17.929688 131.851562 17.300781 132.328125 C 16.3125 133.109375 16.015625 134.335938 14.816406 134.902344 C 14.816406 134.902344 14.699219 134.964844 14.726562 134.992188 C 14.757812 134.992188 17.152344 135.679688 19.394531 135.113281 C 20.292969 134.875 21.070312 134.425781 21.851562 133.914062 C 22.746094 133.316406 23.257812 132.777344 24.125 132.597656 C 24.542969 132.660156 25.441406 132.570312 25.441406 132.570312 C 25.621094 132.597656 25.769531 132.628906 25.949219 132.6875 C 26.367188 132.988281 26.757812 133.289062 27.175781 133.617188 C 29.539062 135.441406 31.605469 137.746094 33.191406 140.347656 C 32.890625 140.109375 32.5625 139.929688 32.265625 139.78125 C 31.574219 139.210938 31.066406 138.613281 30.5 137.867188 C 30.050781 137.265625 29.601562 136.699219 29.03125 136.21875 C 27.714844 135.113281 26.097656 134.542969 24.394531 134.425781 C 24.273438 134.425781 24.152344 134.542969 24.242188 134.664062 C 24.363281 134.84375 24.511719 135.054688 24.632812 135.230469 C 25.53125 136.578125 26.699219 137.6875 28.132812 138.492188 C 28.882812 138.914062 29.628906 139.183594 30.4375 139.421875 C 31.066406 139.601562 31.574219 139.75 32.085938 139.992188 C 32.652344 140.410156 33.25 140.796875 33.761719 141.308594 C 34.898438 143.371094 35.734375 145.554688 36.183594 147.859375 C 35.792969 146.84375 34.296875 145.285156 34.238281 145.257812 C 34.117188 145.167969 34.03125 145.046875 33.910156 144.957031 C 32.324219 143.550781 31.875 141.1875 30.167969 139.992188 C 27.175781 137.894531 22.476562 140.199219 19.246094 140.289062 C 19.1875 140.289062 19.128906 140.347656 19.1875 140.410156 C 20.832031 141.457031 21.761719 143.222656 23.527344 144.148438 C 23.554688 144.328125 23.585938 144.539062 23.644531 144.71875 C 24.152344 147.769531 26.128906 149.625 26.9375 150.402344 C 27.804688 151.242188 28.703125 152.019531 29.808594 152.5 C 30.140625 152.648438 30.5 152.769531 30.855469 152.859375 C 31.90625 153.097656 33.699219 153.753906 34.296875 154.953125 C 34.746094 156.328125 35.136719 157.707031 35.375 159.113281 C 34.867188 160.636719 34.238281 162.105469 33.519531 163.570312 C 33.519531 163.210938 33.492188 162.914062 33.371094 162.613281 C 33.101562 160.546875 32.175781 158.335938 30.945312 156.777344 C 28.972656 154.265625 25.53125 154.414062 23.527344 152.109375 C 23.4375 151.988281 23.226562 152.019531 23.226562 152.199219 C 23.347656 154.472656 23.734375 156.210938 25.441406 157.734375 C 26.398438 158.601562 27.863281 160.339844 29.09375 160.757812 C 32.953125 162.042969 33.25 164.140625 33.25 164.167969 C 33.011719 164.617188 31.726562 167.042969 31.335938 167.761719 C 31.066406 166.683594 30.289062 165.933594 29.421875 164.949219 C 27.953125 163.273438 26.757812 161.984375 24.84375 160.789062 C 21.640625 158.78125 17.839844 157.015625 13.949219 158.035156 C 13.769531 158.09375 13.800781 158.335938 13.980469 158.394531 C 16.253906 159.230469 16.761719 161.265625 18.410156 162.703125 C 19.664062 163.808594 21.371094 164.558594 22.808594 165.394531 C 23.585938 165.84375 24.871094 166.863281 26.1875 166.710938 C 29.332031 166.414062 29.75 166.265625 30.347656 166.742188 C 31.15625 167.789062 31.1875 169.105469 31.214844 169.105469 C 29.898438 171.980469 28.671875 175.0625 28.433594 178.144531 C 28.222656 180.867188 28.015625 185.265625 29.839844 187.570312 C 30.050781 187.808594 30.5 187.691406 30.378906 187.332031 C 29.71875 185.445312 29.179688 183.558594 29.03125 180.65625 C 28.851562 177.304688 29.898438 174.34375 30.886719 171.320312 C 31.574219 171.082031 33.191406 170.242188 33.429688 170.0625 C 33.492188 170.035156 33.519531 170.003906 33.550781 169.945312 C 37.917969 171.023438 40.644531 169.945312 44.921875 168.597656 C 50.636719 166.773438 50.996094 160.488281 50.996094 160.457031 C 51.414062 159.203125 51.566406 158.214844 50.609375 159.679688 C 49.230469 161.773438 49.441406 162.734375 45.101562 164.378906 C 42.078125 165.515625 38.160156 165.515625 35.496094 167.429688 C 34.835938 167.910156 34.417969 168.65625 33.820312 169.105469 C 33.460938 169.375 31.664062 170.183594 31.335938 170.453125 C 31.214844 170.542969 32.144531 167.222656 32.144531 167.191406 C 32.472656 166.683594 32.773438 166.203125 33.070312 165.695312 C 34.417969 164.679688 35.617188 163.75 37.203125 163.0625 C 38.757812 162.375 39.863281 162.644531 41.390625 162.195312 C 42.796875 161.773438 43.664062 161.027344 44.441406 159.769531 C 46.628906 156.269531 49.023438 153.457031 48.601562 149.148438 C 48.601562 148.996094 48.363281 148.789062 48.242188 148.9375 C 46.507812 150.703125 44.832031 152.589844 42.976562 154.234375 C 41.601562 155.460938 39.714844 156.148438 38.398438 157.40625 C 37.53125 158.246094 37.261719 158.84375 36.933594 159.980469 C 36.484375 161.566406 35.644531 162.734375 34.597656 163.839844 C 34.296875 164.078125 34 164.289062 33.730469 164.527344 C 35.285156 161.535156 36.304688 158.363281 36.691406 155.160156 C 37.949219 153.785156 38.667969 152.796875 39.414062 151.0625 C 39.683594 150.402344 40.015625 149.777344 40.375 149.175781 C 41.75 148.90625 43.125 149.085938 44.503906 148.636719 C 45.730469 148.25 46.867188 147.589844 47.882812 146.8125 C 49.410156 145.617188 50.546875 143.941406 50.488281 141.996094 C 50.519531 141.90625 50.578125 141.816406 50.636719 141.695312 C 51.054688 140.410156 50.097656 139.152344 49.800781 137.957031 C 49.769531 137.777344 49.441406 137.65625 49.378906 137.894531 C 48.960938 139.871094 48.332031 141.695312 47.433594 143.519531 C 47.433594 143.519531 47.433594 143.519531 47.433594 143.550781 C 46.777344 143.761719 46.148438 144 45.492188 144.210938 C 44.472656 144.597656 43.425781 144.957031 42.558594 145.644531 C 41 146.871094 40.195312 148.339844 39.234375 150.195312 C 39.207031 149.566406 38.996094 148.636719 39.027344 148.546875 C 39.984375 144.597656 44.234375 142.984375 42.320312 138.734375 C 41.121094 136.128906 36.183594 131.3125 36.183594 131.28125 C 37.203125 128.019531 40.734375 125.507812 43.335938 123.472656 C 43.484375 123.351562 43.277344 123.144531 43.15625 123.144531 C 38.9375 123.113281 35.792969 125.6875 32.921875 128.558594 C 30.078125 131.402344 31.84375 134.605469 32.472656 137.894531 C 32.472656 138.046875 32.472656 138.195312 32.472656 138.34375 C 31.1875 136.519531 29.628906 134.964844 27.925781 133.585938 C 26.25 131.28125 27.953125 128.589844 27.863281 125.894531 C 27.746094 122.964844 27.085938 120.179688 28.195312 117.308594 C 28.253906 117.15625 28.074219 116.828125 27.863281 116.949219 C 26.699219 117.667969 25.949219 118.386719 25.441406 119.703125 C 24.8125 121.347656 23.734375 123.144531 23.464844 124.9375 C 23.105469 127.542969 24.84375 130.054688 26.429688 132.121094 C 26.519531 132.300781 26.609375 132.480469 26.726562 132.660156 C 24.8125 131.191406 22.808594 129.847656 20.863281 128.46875 C 20.054688 126.433594 20.503906 124.21875 19.816406 122.15625 C 19.335938 120.808594 18.4375 119.671875 17.300781 118.714844 C 17.183594 118.59375 17.003906 118.683594 17.003906 118.863281 C 16.914062 120.597656 17.390625 122.183594 18.019531 123.800781 C 18.886719 126.015625 19.996094 127.453125 20.085938 127.601562 C 20.113281 127.75 20.175781 127.902344 20.203125 128.082031 C 17.300781 126.015625 13.949219 124.070312 11.796875 121.257812 C 10.269531 119.222656 9.460938 117.546875 7.277344 116.109375 C 7.128906 116.019531 6.886719 116.050781 6.917969 116.289062 C 7.277344 119.671875 12.511719 122.902344 12.511719 122.875 C 13.140625 123.5 13.800781 124.039062 14.546875 124.578125 C 14.578125 124.609375 14.636719 124.640625 14.667969 124.667969 C 13.261719 124.011719 11.644531 123.742188 10.238281 124.550781 C 9.761719 124.820312 9.429688 125.238281 9.011719 125.566406 C 8.382812 126.074219 7.515625 126.316406 6.949219 126.824219 C 6.230469 127.480469 5.929688 128.082031 5.871094 129.097656 Z M 40.523438 149.027344 C 41.871094 146.933594 43.695312 145.40625 46.238281 144.539062 C 47.40625 144.148438 49.023438 143.789062 49.980469 142.832031 C 49.441406 145.046875 47.882812 146.605469 45.730469 147.742188 C 44.054688 148.609375 42.230469 148.429688 40.523438 149.027344 Z M 37.230469 162.464844 C 39.355469 160.726562 41.539062 159.679688 43.457031 157.644531 C 45.339844 155.609375 46.777344 152.976562 48.152344 150.523438 C 48.574219 150.554688 48.484375 151.210938 48.183594 152.4375 C 47.792969 154.085938 46.808594 154.984375 45.878906 156.359375 C 44.953125 157.675781 44.414062 159.710938 43.214844 160.789062 C 41.421875 162.3125 39.265625 161.65625 37.230469 162.464844 Z M 36.183594 162.792969 C 36.574219 162.164062 36.84375 161.386719 37.320312 160.160156 C 38.308594 157.527344 40.851562 156.71875 42.855469 155.070312 C 44.292969 153.90625 45.519531 151.75 47.078125 150.882812 C 47.316406 150.761719 47.496094 150.671875 47.675781 150.613281 C 46.058594 153.128906 44.710938 155.941406 42.527344 158.003906 C 40.644531 159.800781 38.277344 160.878906 36.394531 162.703125 C 36.363281 162.703125 36.332031 162.734375 36.304688 162.734375 C 36.273438 162.734375 36.242188 162.761719 36.183594 162.792969 Z M 33.910156 169.644531 C 35.078125 168.628906 35.167969 167.941406 37.050781 167.070312 C 39.503906 165.90625 42.46875 165.816406 45.070312 165.007812 C 46.835938 164.46875 48.960938 163.871094 50.128906 162.3125 C 50.128906 162.285156 50.160156 162.285156 50.160156 162.253906 C 49.800781 163.359375 49.441406 164.527344 48.871094 165.367188 C 47.765625 167.011719 45.757812 167.609375 44.023438 168.238281 C 40.910156 169.347656 37.800781 169.945312 33.910156 169.644531 Z M 29.628906 165.636719 C 27.355469 163.988281 24.84375 163.480469 22.300781 162.253906 C 20.292969 161.265625 18.917969 159.410156 16.582031 159.082031 C 16.523438 159.082031 16.554688 159.140625 16.582031 159.171875 C 18.859375 159.710938 20.203125 161.535156 22.210938 162.554688 C 23.375 163.152344 24.691406 163.449219 25.917969 163.960938 C 26.90625 164.378906 28.492188 165.277344 29.390625 165.816406 C 29.332031 165.816406 27.835938 165.90625 26.996094 166.085938 C 24.902344 166.5625 23.617188 165.546875 22 164.589844 C 20.023438 163.449219 18.46875 162.492188 17.183594 160.578125 C 16.195312 159.082031 14.789062 158.484375 14.757812 158.304688 C 14.757812 158.214844 18.769531 158.574219 19.335938 158.632812 C 21.671875 158.960938 23.914062 160.488281 25.828125 161.835938 C 26.996094 162.644531 28.523438 164.109375 29.628906 165.636719 Z M 33.011719 162.074219 C 32.773438 161.773438 32.472656 161.535156 32.085938 161.328125 C 30.917969 160.757812 29.480469 160.726562 28.375 159.800781 C 27.417969 158.960938 26.429688 158.035156 25.5625 157.105469 C 24.992188 156.507812 23.347656 153.457031 23.765625 152.949219 C 23.855469 152.828125 24.902344 153.875 26.429688 154.445312 C 30.140625 155.820312 32.113281 158.511719 33.011719 162.074219 Z M 35.855469 131.222656 C 35.316406 130.804688 34.746094 130.414062 34.207031 130.113281 C 34.03125 130.027344 33.851562 130.144531 33.96875 130.355469 C 34.507812 131.3125 34.867188 132.089844 35.195312 132.988281 C 34.296875 134.453125 32.921875 135.890625 32.5625 137.566406 C 32.113281 134.695312 30.648438 131.789062 32.953125 129.246094 C 34.359375 127.691406 36.394531 126.164062 38.128906 124.96875 C 38.847656 124.488281 42.648438 123.292969 42.320312 123.980469 C 41.898438 124.847656 40.132812 125.175781 38.519531 126.914062 C 37.140625 128.320312 36.453125 129.335938 35.855469 131.222656 Z M 38.726562 148.011719 C 38.398438 145.914062 37.859375 143.941406 37.382812 141.753906 C 36.691406 138.644531 36.691406 135.800781 35.617188 132.75 C 34.449219 129.425781 35.855469 131.878906 37.292969 133.226562 C 38.667969 134.515625 40.195312 135.800781 41.03125 137.566406 C 43.605469 142.742188 39.953125 144.058594 38.726562 148.011719 Z M 23.824219 144.058594 C 23.796875 143.851562 23.617188 143.011719 23.675781 142.953125 C 23.675781 142.953125 26.636719 145.464844 27.65625 146.214844 C 30.347656 148.128906 32.265625 149.984375 33.550781 153.039062 C 32.441406 152.378906 31.035156 152.5 29.871094 151.929688 C 26.816406 150.492188 24.511719 147.382812 23.824219 144.058594 Z M 33.011719 144.808594 C 32.5625 144.6875 32.085938 144.660156 31.636719 144.660156 C 30.109375 144.71875 28.464844 145.707031 26.996094 145.167969 C 25.710938 144.300781 24.511719 143.371094 23.644531 142.085938 C 23.554688 141.933594 23.167969 141.84375 23.195312 142.144531 C 23.257812 142.714844 23.347656 143.253906 23.4375 143.789062 C 21.878906 142.953125 20.980469 141.457031 19.515625 140.5 C 22.808594 140.949219 26.339844 138.703125 29.480469 140.347656 C 31.214844 141.246094 31.367188 142.863281 32.503906 144.269531 C 32.683594 144.480469 32.863281 144.660156 33.011719 144.808594 Z M 36.601562 151.480469 C 36.691406 153.753906 36.332031 155.941406 35.734375 158.035156 C 35.617188 156.480469 35.226562 154.683594 34.238281 153.574219 C 34.238281 153.546875 33.640625 151.542969 32.355469 149.566406 C 31.15625 147.742188 29.210938 146.632812 27.386719 145.40625 C 27.863281 145.527344 28.34375 145.554688 28.882812 145.496094 C 30.019531 145.40625 31.066406 144.957031 32.203125 145.078125 C 32.773438 145.136719 33.3125 145.316406 33.851562 145.496094 C 34.6875 146.183594 35.585938 146.871094 36.242188 148.789062 C 36.242188 148.96875 36.574219 150.613281 36.601562 151.480469 Z M 32.742188 138.824219 C 32.742188 138.792969 32.773438 138.792969 32.742188 138.792969 C 32.503906 136.609375 34.269531 135.023438 35.257812 133.257812 C 36.09375 135.679688 36.304688 138.046875 36.8125 140.769531 C 37.410156 144.179688 38.488281 147.410156 38.90625 150.882812 C 38.21875 152.257812 37.558594 153.664062 36.753906 154.894531 C 37.351562 149.417969 36.125 143.851562 32.742188 138.824219 Z M 26.578125 131.730469 C 25.679688 130.742188 24.992188 129.515625 24.542969 128.441406 C 23.554688 126.015625 24.273438 124.519531 25.261719 122.335938 C 25.5625 121.707031 26.25 118.144531 27.535156 117.996094 C 27.175781 118.027344 26.996094 120.628906 26.996094 121.046875 C 26.996094 122.09375 26.90625 123.113281 26.9375 124.128906 C 26.96875 124.847656 27.238281 125.535156 27.265625 126.316406 C 27.328125 127.660156 27.027344 128.050781 26.609375 129.277344 C 26.367188 130.027344 26.488281 131.191406 26.578125 131.730469 Z M 17.390625 133.855469 C 18.230469 134.125 18.859375 133.644531 19.605469 133.316406 C 20.714844 132.808594 21.820312 132.808594 22.957031 132.660156 C 22.808594 132.71875 22.65625 132.777344 22.507812 132.898438 C 19.933594 134.484375 18.109375 135.261719 15.117188 134.992188 C 15.65625 134.785156 15.894531 134.574219 16.375 134.035156 C 17.511719 132.867188 18.320312 132.121094 20.023438 131.941406 C 20.863281 131.851562 21.640625 132.03125 22.390625 132.269531 C 21.761719 132.328125 21.132812 132.449219 20.5625 132.597656 C 19.457031 132.929688 18.527344 133.796875 17.390625 133.855469 Z M 19.785156 124.878906 C 19.816406 125.6875 19.875 126.464844 19.996094 127.210938 C 19.574219 126.34375 19.1875 125.328125 18.769531 124.578125 C 18.320312 123.832031 17.960938 123.054688 17.71875 122.183594 C 17.71875 122.15625 17.152344 119.882812 17.390625 119.613281 C 17.71875 119.222656 18.886719 121.046875 19.066406 121.46875 C 19.605469 122.542969 19.726562 123.679688 19.785156 124.878906 Z M 6.949219 127.480469 C 7.636719 126.703125 8.5625 126.554688 9.339844 125.894531 C 10.808594 124.640625 12.335938 124.128906 14.21875 124.910156 C 14.367188 124.96875 14.519531 125.027344 14.667969 125.117188 C 14.011719 124.9375 13.351562 124.9375 12.664062 125.355469 C 11.734375 125.894531 11.195312 126.851562 10.179688 127.332031 C 9.222656 127.78125 8.324219 127.660156 7.367188 128.050781 C 6.589844 128.351562 5.75 128.859375 6.949219 127.480469 Z M 6.949219 127.480469 " fill-opacity="1" fill-rule="nonzero"/></g><g clip-path="url(#74aa12409d)"><path fill="#ffffff" d="M 120.570312 176.5 C 120.601562 175.898438 120.300781 175.242188 120.332031 174.613281 C 120.332031 174.195312 120.421875 173.773438 120.363281 173.355469 C 120.152344 172.070312 119.195312 171.230469 118.085938 170.691406 C 118.117188 170.691406 118.148438 170.722656 118.207031 170.722656 C 118.894531 170.902344 119.582031 171.023438 120.273438 171.113281 C 120.242188 171.140625 124.820312 172.757812 127.09375 171.292969 C 127.242188 171.203125 127.152344 171.023438 127.003906 170.992188 C 125.03125 170.363281 123.59375 170.691406 121.589844 170.78125 C 118.804688 170.871094 115.933594 169.796875 113.238281 169.015625 C 113.359375 168.957031 113.480469 168.925781 113.597656 168.867188 C 113.71875 168.835938 115.183594 168.808594 116.949219 168.238281 C 118.265625 167.820312 119.464844 167.3125 120.480469 166.414062 C 120.570312 166.324219 120.539062 166.175781 120.421875 166.175781 C 119.253906 165.933594 118.148438 165.964844 117.011719 166.355469 C 115.394531 166.953125 114.257812 168.328125 112.609375 168.835938 C 110.785156 168.328125 108.988281 167.761719 107.136719 167.3125 C 107.3125 167.3125 107.464844 167.28125 107.613281 167.25 C 109.679688 167.222656 112.074219 167.011719 113.507812 165.515625 C 114.464844 164.46875 115.035156 162.914062 115.753906 161.714844 C 116.320312 160.757812 116.382812 159.921875 116.230469 158.871094 C 116.203125 158.691406 115.933594 158.722656 115.84375 158.84375 C 114.644531 160.9375 112.582031 161.925781 110.726562 163.300781 C 109.019531 164.589844 108.242188 166.953125 105.996094 167.070312 C 104.292969 166.710938 102.554688 166.535156 100.820312 166.652344 C 100.910156 166.59375 101 166.503906 101.089844 166.445312 C 103.425781 165.1875 106.265625 164.707031 106.597656 161.535156 C 106.925781 158.335938 106.957031 155.132812 104.832031 152.558594 C 104.769531 152.46875 104.53125 152.4375 104.53125 152.617188 C 104.589844 155.222656 104.800781 158.632812 103.304688 160.878906 C 103.273438 160.90625 97.886719 160.25 95.703125 160.816406 C 92.144531 161.746094 93.28125 165.15625 91.304688 167.699219 C 91.246094 167.761719 90.585938 168.121094 90.167969 168.386719 C 90.855469 166.890625 91.335938 165.636719 91.335938 164.078125 C 91.335938 163.210938 91.035156 162.375 90.765625 161.566406 C 90.585938 161.058594 90.40625 160.546875 90.199219 160.039062 C 90.855469 158.574219 91.664062 157.285156 92.679688 156.058594 C 92.800781 155.910156 92.5625 155.789062 92.441406 155.851562 C 91.542969 156.269531 90.316406 156.300781 89.71875 157.195312 C 89.660156 157.257812 89.660156 157.347656 89.597656 157.4375 C 88.371094 158.335938 87.921875 159.890625 87.953125 161.417969 C 87.984375 162.433594 88.132812 163.449219 88.523438 164.410156 C 88.941406 165.457031 89.75 166.234375 90.257812 167.222656 C 90.078125 167.730469 89.867188 168.238281 89.597656 168.746094 C 88.882812 170.0625 88.640625 170.992188 88.433594 172.457031 C 86.667969 174.285156 85.230469 176.46875 84.183594 178.921875 C 84.183594 178.621094 84.183594 178.324219 84.183594 178.054688 C 84.332031 176.855469 84.632812 175.78125 85.378906 174.703125 C 85.917969 173.953125 86.15625 173.476562 86.21875 172.519531 C 86.335938 171.082031 85.828125 169.617188 85.886719 168.148438 C 85.976562 166.203125 86.308594 164.230469 86.515625 162.285156 C 86.546875 162.132812 86.308594 162.105469 86.21875 162.164062 C 83.375 164.050781 82.835938 166.921875 81.789062 169.976562 C 81.398438 171.050781 81.398438 171.980469 81.820312 173.058594 C 82.296875 174.222656 83.015625 174.761719 83.375 176.050781 C 83.734375 177.367188 83.765625 178.5625 83.792969 179.878906 C 83.613281 180.296875 83.464844 180.746094 83.34375 181.195312 C 83.34375 181.195312 81.730469 183.410156 81.757812 183.320312 C 81.789062 182.960938 81.371094 181.496094 81.371094 181.136719 C 81.339844 180.539062 81.609375 179.910156 81.578125 179.28125 C 81.429688 176.675781 79.484375 174.285156 78.675781 171.859375 C 77.539062 168.386719 78.226562 168.03125 78.828125 166.144531 C 79.246094 164.828125 78.707031 165.425781 78.136719 166.292969 C 78.109375 166.292969 74.425781 169.644531 76.164062 174.042969 C 77.449219 177.335938 78.136719 179.550781 80.980469 181.703125 C 80.980469 181.734375 80.980469 181.792969 80.980469 181.824219 C 80.980469 182.0625 81.28125 183.46875 81.488281 184.007812 C 80.144531 186.132812 78.828125 188.230469 76.703125 189.785156 C 74.847656 191.132812 73.410156 191.730469 71.945312 192.269531 C 71.675781 192.359375 71.824219 192.71875 72.0625 192.71875 C 74.367188 192.6875 76.972656 190.382812 78.527344 188.886719 C 80.292969 187.210938 81.578125 184.9375 82.6875 182.691406 C 82.714844 182.691406 83.523438 182.0625 84.570312 182.0625 C 85.171875 182.183594 85.289062 182.511719 86.667969 184.578125 C 87.234375 185.445312 88.492188 185.714844 89.148438 185.984375 C 90.378906 186.464844 91.664062 187.121094 92.980469 187.359375 C 94.6875 187.660156 96.183594 186.972656 97.828125 187.929688 C 97.949219 187.988281 98.128906 187.898438 98.066406 187.75 C 96.75 184.878906 93.789062 183.410156 91.003906 182.453125 C 89.328125 181.882812 87.953125 181.792969 86.1875 181.703125 C 85.140625 181.675781 84.300781 181.554688 83.496094 181.945312 C 83.734375 181.347656 84.570312 179.339844 84.722656 178.980469 C 84.722656 178.980469 86.1875 178.144531 88.882812 179.851562 C 89.75 180.386719 91.542969 180.449219 92.53125 180.597656 C 94.296875 180.867188 95.554688 180.269531 97.019531 179.191406 C 97.140625 179.101562 97.019531 178.980469 96.929688 178.953125 C 94.507812 178.863281 92.921875 176.675781 90.378906 176.707031 C 88.820312 176.738281 86.996094 177.277344 85.589844 178.113281 C 85.351562 178.203125 85.140625 178.324219 84.929688 178.503906 C 85.46875 177.335938 86.066406 176.230469 86.726562 175.152344 C 87.714844 174.582031 88.761719 174.132812 89.808594 173.746094 C 90.824219 173.503906 92.144531 174.285156 92.800781 174.824219 C 93.011719 175 93.28125 175.152344 93.519531 175.269531 C 94.355469 175.71875 95.316406 175.898438 96.242188 175.988281 C 97.140625 176.078125 99.234375 176.410156 101.390625 175.179688 C 101.539062 175.121094 101.660156 175.03125 101.777344 174.972656 C 103.214844 175.601562 104.769531 175.269531 106.238281 175.78125 C 106.296875 175.808594 106.328125 175.71875 106.265625 175.691406 C 104.710938 173.683594 103.8125 169.644531 101.03125 168.835938 C 99.445312 168.386719 97.769531 169.285156 96.121094 169.015625 C 96.003906 168.988281 95.882812 168.988281 95.761719 168.957031 C 95.703125 168.925781 94.027344 168.808594 93.191406 169.078125 C 94.835938 168.238281 96.601562 167.640625 98.425781 167.3125 C 98.996094 167.371094 99.535156 167.550781 100.074219 167.671875 C 100.492188 167.851562 100.820312 168.089844 101.238281 168.386719 C 101.777344 168.746094 102.347656 169.078125 102.945312 169.347656 C 104.140625 169.824219 105.398438 170.003906 106.6875 169.886719 C 106.867188 169.886719 107.046875 169.855469 107.222656 169.855469 C 107.34375 169.855469 107.375 169.707031 107.3125 169.644531 C 106.386719 168.65625 105.25 167.941406 103.902344 167.671875 C 103.335938 167.550781 102.765625 167.550781 102.167969 167.582031 C 101.449219 167.609375 100.820312 167.609375 100.132812 167.460938 C 99.863281 167.339844 99.59375 167.25 99.324219 167.160156 C 101.6875 166.832031 104.140625 166.953125 106.445312 167.492188 C 106.835938 167.582031 107.222656 167.699219 107.613281 167.789062 C 107.734375 167.878906 107.824219 167.96875 107.941406 168.058594 C 107.941406 168.058594 108.332031 168.65625 108.570312 168.898438 C 108.898438 169.527344 108.8125 170.09375 108.898438 170.960938 C 108.960938 171.679688 109.078125 172.398438 109.378906 173.058594 C 110.15625 174.734375 111.742188 175.839844 111.773438 175.839844 C 111.804688 175.871094 111.773438 175.75 111.773438 175.75 C 111.535156 174.734375 112.160156 173.925781 112.132812 172.9375 C 112.132812 172.277344 111.804688 171.648438 111.472656 171.113281 C 110.816406 169.945312 109.648438 169.347656 108.660156 168.507812 C 108.542969 168.296875 108.390625 168.121094 108.183594 167.96875 C 110.84375 168.65625 116.859375 170.542969 117.1875 170.664062 C 118.027344 171.292969 118.386719 172.128906 118.417969 173.238281 C 118.417969 173.59375 118.328125 173.925781 118.355469 174.285156 C 118.445312 175.449219 119.882812 177.066406 119.492188 178.144531 C 119.433594 178.292969 119.671875 178.414062 119.792969 178.292969 C 120.300781 177.785156 120.539062 177.277344 120.570312 176.5 Z M 88.492188 163.09375 C 88.132812 161.207031 88.3125 159.5 89.390625 158.066406 C 89.269531 159.113281 89.867188 160.277344 90.199219 161.207031 C 90.914062 163.210938 90.914062 165.097656 90.289062 166.953125 C 89.808594 165.605469 88.792969 164.589844 88.492188 163.09375 Z M 81.757812 171.171875 C 81.820312 169.886719 82.777344 168.539062 83.136719 167.339844 C 83.496094 166.085938 83.585938 165.035156 84.390625 163.988281 C 84.992188 163.210938 85.351562 162.824219 85.589844 163.0625 C 84.75 165.097656 83.855469 167.28125 83.554688 169.464844 C 83.226562 171.648438 83.703125 173.503906 83.675781 175.660156 C 83.164062 173.984375 81.699219 172.996094 81.757812 171.171875 Z M 83.972656 176.320312 C 83.972656 176.289062 83.972656 176.257812 83.941406 176.257812 C 84.121094 174.195312 83.613281 172.21875 83.765625 170.152344 C 83.941406 167.789062 84.992188 165.574219 85.738281 163.332031 C 85.769531 163.449219 85.828125 163.628906 85.859375 163.808594 C 86.128906 165.214844 85.410156 167.011719 85.378906 168.476562 C 85.351562 170.542969 86.128906 172.488281 84.992188 174.402344 C 84.453125 175.300781 84.121094 175.871094 83.941406 176.410156 C 84.003906 176.410156 84.003906 176.347656 83.972656 176.320312 Z M 76.761719 174.3125 C 76.28125 172.9375 75.652344 171.410156 76.101562 169.914062 C 76.34375 169.167969 76.882812 168.359375 77.359375 167.582031 C 77.359375 167.609375 77.359375 167.609375 77.328125 167.640625 C 76.941406 169.136719 77.660156 170.722656 78.199219 172.070312 C 79.003906 174.074219 80.414062 175.929688 80.921875 178.023438 C 81.308594 179.609375 80.949219 180 80.890625 181.226562 C 78.828125 179.011719 77.628906 176.796875 76.761719 174.3125 Z M 89.660156 182.304688 C 91.425781 182.8125 93.488281 183.441406 94.835938 184.699219 C 95.164062 184.996094 97.378906 187.300781 97.320312 187.332031 C 97.199219 187.421875 96.121094 186.851562 94.714844 186.972656 C 92.921875 187.152344 91.542969 186.640625 89.867188 186.015625 C 88.492188 185.476562 87.207031 185.207031 86.488281 183.679688 C 86.1875 183.082031 85.5 182.125 85.46875 182.0625 C 86.246094 182.332031 87.59375 182.871094 88.34375 183.261719 C 89.269531 183.738281 90.109375 184.398438 91.066406 184.816406 C 92.679688 185.535156 94.476562 185.445312 95.941406 186.582031 C 95.972656 186.613281 96.03125 186.582031 96.003906 186.554688 C 94.65625 185.296875 92.832031 185.386719 91.246094 184.636719 C 89.238281 183.710938 87.652344 182.421875 85.53125 181.824219 C 86.996094 181.792969 88.640625 182.003906 89.660156 182.304688 Z M 93.9375 178.265625 C 95.046875 178.921875 96.210938 179.042969 96.183594 179.160156 C 96.09375 179.671875 93.398438 180.179688 92.742188 180.117188 C 91.722656 180.058594 90.675781 179.910156 89.6875 179.730469 C 88.550781 179.519531 87.832031 178.652344 86.90625 178.203125 C 86.578125 178.054688 86.277344 177.996094 85.976562 177.996094 C 88.640625 176.796875 91.273438 176.707031 93.9375 178.265625 Z M 104.890625 157.226562 C 105.160156 155.371094 104.472656 154.144531 104.800781 153.457031 C 105.070312 152.917969 106.238281 155.820312 106.296875 156.507812 C 106.417969 158.183594 106.507812 160.160156 106.238281 161.804688 C 105.816406 164.5 103.304688 165.007812 101.328125 166.175781 C 102.167969 165.125 102.375 163.570312 102.824219 162.285156 C 103.542969 162.015625 104.203125 161.863281 105.070312 161.714844 C 105.25 161.6875 105.21875 161.507812 105.070312 161.445312 C 104.621094 161.265625 104.082031 161.117188 103.574219 160.996094 C 104.382812 159.679688 104.679688 158.722656 104.890625 157.226562 Z M 97.050781 160.9375 C 98.546875 160.609375 100.101562 160.878906 101.570312 161.085938 C 103.09375 161.296875 105.308594 160.9375 102.707031 161.894531 C 100.3125 162.761719 98.546875 164.167969 96.300781 165.277344 C 94.714844 166.054688 93.25 166.710938 91.8125 167.550781 C 93.609375 164.828125 92.621094 161.953125 97.050781 160.9375 Z M 93.789062 174.941406 C 92.859375 174.492188 92.234375 173.566406 91.273438 173.238281 C 93.789062 172.519531 95.882812 172.757812 98.367188 173.476562 C 99.324219 173.746094 102.347656 174.3125 102.347656 174.3125 C 102.347656 174.375 101.75 174.703125 101.597656 174.761719 C 99.265625 175.960938 96.183594 176.078125 93.789062 174.941406 Z M 97.171875 169.496094 C 98.605469 169.496094 99.652344 168.808594 101.089844 169.40625 C 103.664062 170.511719 104.050781 173.804688 105.96875 175.601562 C 104.679688 175.179688 103.304688 175.359375 102.019531 174.824219 C 102.40625 174.613281 102.765625 174.402344 103.15625 174.164062 C 103.363281 174.042969 103.125 173.863281 102.976562 173.863281 C 101.75 173.984375 100.582031 173.683594 99.414062 173.328125 C 98.367188 172.699219 98.128906 171.171875 97.410156 170.214844 C 97.199219 169.914062 96.929688 169.644531 96.632812 169.4375 C 96.78125 169.496094 96.960938 169.496094 97.171875 169.496094 Z M 92.5625 169.496094 C 94.085938 168.957031 94.925781 169.136719 95.792969 169.316406 C 96.152344 169.585938 96.542969 169.824219 96.871094 170.125 C 97.5 170.753906 97.769531 171.652344 98.277344 172.367188 C 98.515625 172.699219 98.785156 172.996094 99.085938 173.238281 C 97.4375 172.699219 95.792969 172.070312 94.058594 172.25 C 92.203125 172.429688 90.675781 173.058594 90.675781 173.085938 C 89.507812 173.027344 88.191406 173.683594 87.175781 174.375 C 88.164062 172.96875 89.328125 171.652344 90.765625 170.574219 C 91.304688 170.152344 92.441406 169.527344 92.5625 169.496094 Z M 88.550781 172.160156 C 88.910156 171.082031 89.449219 169.976562 89.957031 168.867188 C 92.292969 167.402344 94.804688 166.445312 97.199219 165.125 C 99.113281 164.078125 100.699219 163.03125 102.585938 162.34375 C 101.988281 163.839844 101.898438 165.695312 100.433594 166.652344 C 100.433594 166.652344 100.433594 166.683594 100.402344 166.683594 C 95.644531 167.101562 91.632812 169.078125 88.550781 172.160156 Z M 109.320312 165.664062 C 109.886719 164.796875 109.976562 164.4375 110.816406 163.78125 C 111.292969 163.421875 111.863281 163.242188 112.3125 162.914062 C 112.96875 162.433594 113.539062 161.863281 114.195312 161.355469 C 114.4375 161.148438 115.960938 159.742188 115.78125 159.5 C 116.351562 160.367188 114.496094 162.554688 114.257812 163.0625 C 113.390625 164.769531 112.851562 165.933594 110.875 166.535156 C 109.976562 166.800781 108.871094 166.980469 107.824219 166.921875 C 108.210938 166.683594 108.988281 166.203125 109.320312 165.664062 Z M 111.085938 173.59375 C 110.546875 172.847656 110.636719 171.859375 110.277344 171.023438 C 110.097656 170.574219 109.859375 170.152344 109.589844 169.734375 C 110.097656 170.09375 110.605469 170.484375 110.964844 171.023438 C 111.683594 172.160156 111.625 173.027344 111.472656 174.285156 C 111.414062 174.851562 111.382812 175.089844 111.535156 175.539062 C 109.886719 173.835938 109.46875 172.308594 109.140625 169.945312 C 109.109375 169.796875 109.078125 169.675781 109.050781 169.554688 C 109.527344 170.332031 110.066406 171.023438 110.308594 171.949219 C 110.457031 172.609375 110.488281 173.238281 111.085938 173.59375 C 111.085938 173.625 111.085938 173.59375 111.085938 173.59375 Z M 117.878906 166.414062 C 118.238281 166.324219 119.914062 166.144531 119.851562 166.535156 C 119.792969 166.832031 118.117188 167.609375 118.085938 167.609375 C 117.457031 167.878906 116.769531 168.03125 116.113281 168.148438 C 115.453125 168.238281 114.644531 168.539062 113.867188 168.6875 C 114.40625 168.386719 114.886719 168.058594 115.394531 167.671875 C 116.140625 167.101562 116.921875 166.625 117.878906 166.414062 Z M 119.644531 176.855469 C 119.402344 176.078125 118.894531 175.601562 118.6875 174.792969 C 118.476562 173.953125 118.777344 173.148438 118.65625 172.308594 C 118.566406 171.679688 118.238281 171.261719 117.816406 170.960938 C 117.9375 171.023438 118.058594 171.082031 118.175781 171.140625 C 119.582031 171.917969 120.03125 173.117188 120.003906 174.644531 C 119.972656 175.449219 120.363281 176.078125 120.210938 176.886719 C 119.914062 178.265625 119.824219 177.484375 119.644531 176.855469 Z M 119.644531 176.855469 " fill-opacity="1" fill-rule="nonzero"/></g><g clip-path="url(#2d96cf6f8b)"><path fill="#ffffff" d="M 74.039062 56.5625 C 74.816406 55.273438 75.265625 53.867188 75.386719 52.460938 C 76.730469 56.351562 76.460938 60.78125 74.1875 64.609375 C 70.117188 71.492188 61.261719 73.765625 54.40625 69.726562 C 47.523438 65.6875 45.25 56.800781 49.289062 49.949219 C 51.535156 46.117188 55.277344 43.722656 59.34375 43.035156 C 58.179688 43.84375 57.191406 44.921875 56.414062 46.207031 C 53.539062 51.085938 55.15625 57.339844 60.035156 60.210938 C 64.910156 63.054688 71.164062 61.4375 74.039062 56.5625 Z M 74.039062 56.5625 " fill-opacity="1" fill-rule="nonzero"/></g><path fill="#ffffff" d="M 89.808594 73.050781 L 88.28125 70.414062 L 85.199219 70.566406 L 87.832031 69.097656 L 87.683594 65.957031 L 89.417969 68.5625 L 92.292969 68.441406 L 89.75 70.027344 Z M 89.808594 73.050781 " fill-opacity="1" fill-rule="nonzero"/><path fill="#ffffff" d="M 38.007812 103.003906 L 36.511719 100.398438 L 33.402344 100.519531 L 36.035156 99.054688 L 35.882812 95.910156 L 37.621094 98.515625 L 40.492188 98.394531 L 37.980469 100.011719 Z M 38.007812 103.003906 " fill-opacity="1" fill-rule="nonzero"/><path fill="#ffffff" d="M 91.363281 129.21875 L 89.839844 126.585938 L 86.757812 126.734375 L 89.390625 125.265625 L 89.210938 122.125 L 90.976562 124.730469 L 93.847656 124.609375 L 91.304688 126.226562 Z M 91.363281 129.21875 " fill-opacity="1" fill-rule="nonzero"/><path fill="#ffffff" d="M 91.09375 98.125 C 91.09375 98.261719 91.070312 98.390625 91.019531 98.515625 C 90.964844 98.640625 90.894531 98.75 90.796875 98.84375 C 90.703125 98.941406 90.59375 99.015625 90.46875 99.066406 C 90.34375 99.117188 90.210938 99.144531 90.078125 99.144531 C 89.941406 99.144531 89.8125 99.117188 89.6875 99.066406 C 89.5625 99.015625 89.453125 98.941406 89.359375 98.84375 C 89.261719 98.75 89.191406 98.640625 89.136719 98.515625 C 89.085938 98.390625 89.058594 98.261719 89.058594 98.125 C 89.058594 97.992188 89.085938 97.859375 89.136719 97.738281 C 89.191406 97.613281 89.261719 97.5 89.359375 97.40625 C 89.453125 97.3125 89.5625 97.238281 89.6875 97.1875 C 89.8125 97.132812 89.941406 97.109375 90.078125 97.109375 C 90.210938 97.109375 90.34375 97.132812 90.46875 97.1875 C 90.59375 97.238281 90.703125 97.3125 90.796875 97.40625 C 90.894531 97.5 90.964844 97.613281 91.019531 97.738281 C 91.070312 97.859375 91.09375 97.992188 91.09375 98.125 Z M 91.09375 98.125 " fill-opacity="1" fill-rule="nonzero"/><path fill="#ffffff" d="M 93.308594 142.382812 C 93.308594 142.519531 93.285156 142.648438 93.230469 142.773438 C 93.179688 142.898438 93.105469 143.007812 93.011719 143.105469 C 92.917969 143.199219 92.804688 143.273438 92.679688 143.324219 C 92.558594 143.375 92.425781 143.402344 92.292969 143.402344 C 92.15625 143.402344 92.027344 143.375 91.902344 143.324219 C 91.777344 143.273438 91.667969 143.199219 91.574219 143.105469 C 91.476562 143.007812 91.402344 142.898438 91.351562 142.773438 C 91.300781 142.648438 91.273438 142.519531 91.273438 142.382812 C 91.273438 142.25 91.300781 142.121094 91.351562 141.996094 C 91.402344 141.871094 91.476562 141.761719 91.574219 141.664062 C 91.667969 141.570312 91.777344 141.496094 91.902344 141.445312 C 92.027344 141.394531 92.15625 141.367188 92.292969 141.367188 C 92.425781 141.367188 92.558594 141.394531 92.679688 141.445312 C 92.804688 141.496094 92.917969 141.570312 93.011719 141.664062 C 93.105469 141.761719 93.179688 141.871094 93.230469 141.996094 C 93.285156 142.121094 93.308594 142.25 93.308594 142.382812 Z M 93.308594 142.382812 " fill-opacity="1" fill-rule="nonzero"/><path fill="#ffffff" d="M 105.308594 109.707031 C 105.308594 109.839844 105.285156 109.972656 105.230469 110.097656 C 105.179688 110.222656 105.105469 110.332031 105.011719 110.425781 C 104.917969 110.523438 104.804688 110.59375 104.679688 110.648438 C 104.558594 110.699219 104.425781 110.722656 104.292969 110.722656 C 104.15625 110.722656 104.027344 110.699219 103.902344 110.648438 C 103.777344 110.59375 103.667969 110.523438 103.574219 110.425781 C 103.476562 110.332031 103.402344 110.222656 103.351562 110.097656 C 103.300781 109.972656 103.273438 109.839844 103.273438 109.707031 C 103.273438 109.570312 103.300781 109.441406 103.351562 109.316406 C 103.402344 109.191406 103.476562 109.082031 103.574219 108.988281 C 103.667969 108.890625 103.777344 108.820312 103.902344 108.765625 C 104.027344 108.714844 104.15625 108.6875 104.292969 108.6875 C 104.425781 108.6875 104.558594 108.714844 104.679688 108.765625 C 104.804688 108.820312 104.914062 108.890625 105.011719 108.988281 C 105.105469 109.082031 105.179688 109.191406 105.230469 109.316406 C 105.285156 109.441406 105.308594 109.570312 105.308594 109.707031 Z M 105.308594 109.707031 " fill-opacity="1" fill-rule="nonzero"/><path fill="#ffffff" d="M 40.492188 83.492188 C 40.492188 83.628906 40.46875 83.757812 40.414062 83.882812 C 40.363281 84.007812 40.289062 84.117188 40.195312 84.210938 C 40.101562 84.308594 39.988281 84.382812 39.863281 84.433594 C 39.742188 84.484375 39.609375 84.511719 39.476562 84.511719 C 39.339844 84.511719 39.210938 84.484375 39.085938 84.433594 C 38.960938 84.382812 38.851562 84.308594 38.757812 84.210938 C 38.660156 84.117188 38.585938 84.007812 38.535156 83.882812 C 38.484375 83.757812 38.457031 83.628906 38.457031 83.492188 C 38.457031 83.359375 38.484375 83.226562 38.535156 83.105469 C 38.585938 82.980469 38.660156 82.867188 38.757812 82.773438 C 38.851562 82.679688 38.960938 82.605469 39.085938 82.554688 C 39.210938 82.5 39.339844 82.476562 39.476562 82.476562 C 39.609375 82.476562 39.742188 82.5 39.863281 82.554688 C 39.988281 82.605469 40.101562 82.679688 40.195312 82.773438 C 40.289062 82.867188 40.363281 82.980469 40.414062 83.105469 C 40.46875 83.226562 40.492188 83.359375 40.492188 83.492188 Z M 40.492188 83.492188 " fill-opacity="1" fill-rule="nonzero"/><path fill="#ffffff" d="M 25.980469 105.128906 C 25.980469 105.261719 25.953125 105.394531 25.902344 105.519531 C 25.851562 105.640625 25.777344 105.753906 25.683594 105.847656 C 25.585938 105.941406 25.476562 106.015625 25.351562 106.066406 C 25.226562 106.121094 25.097656 106.144531 24.960938 106.144531 C 24.828125 106.144531 24.699219 106.121094 24.574219 106.066406 C 24.449219 106.015625 24.339844 105.941406 24.242188 105.847656 C 24.148438 105.753906 24.074219 105.640625 24.023438 105.519531 C 23.96875 105.394531 23.945312 105.261719 23.945312 105.128906 C 23.945312 104.992188 23.96875 104.863281 24.023438 104.738281 C 24.074219 104.613281 24.148438 104.503906 24.242188 104.410156 C 24.339844 104.3125 24.449219 104.238281 24.574219 104.1875 C 24.699219 104.136719 24.828125 104.109375 24.960938 104.109375 C 25.097656 104.109375 25.226562 104.136719 25.351562 104.1875 C 25.476562 104.238281 25.585938 104.3125 25.683594 104.410156 C 25.777344 104.503906 25.851562 104.613281 25.902344 104.738281 C 25.953125 104.863281 25.980469 104.992188 25.980469 105.128906 Z M 25.980469 105.128906 " fill-opacity="1" fill-rule="nonzero"/><g fill="#ffffff" fill-opacity="1"><g transform="translate(21.46795, 49.303975)"><g><path d="M 10.8125 -26.671875 C 10.269531 -26.367188 9.894531 -26.101562 9.6875 -25.875 C 9.488281 -25.65625 9.410156 -25.378906 9.453125 -25.046875 C 9.503906 -24.710938 9.6875 -24.226562 10 -23.59375 L 16.078125 -11.15625 C 16.378906 -10.519531 16.644531 -10.082031 16.875 -9.84375 C 17.113281 -9.601562 17.382812 -9.488281 17.6875 -9.5 C 17.988281 -9.519531 18.425781 -9.65625 19 -9.90625 L 19.25 -9.40625 C 18.414062 -9.039062 17.132812 -8.441406 15.40625 -7.609375 C 13.71875 -6.773438 12.414062 -6.109375 11.5 -5.609375 L 11.25 -6.109375 C 11.789062 -6.410156 12.160156 -6.675781 12.359375 -6.90625 C 12.566406 -7.132812 12.644531 -7.414062 12.59375 -7.75 C 12.550781 -8.082031 12.378906 -8.566406 12.078125 -9.203125 L 9.125 -15.21875 L 2.46875 -11.96875 L 5.421875 -5.953125 C 5.722656 -5.316406 5.988281 -4.878906 6.21875 -4.640625 C 6.457031 -4.398438 6.726562 -4.285156 7.03125 -4.296875 C 7.332031 -4.316406 7.773438 -4.453125 8.359375 -4.703125 L 8.609375 -4.203125 C 7.691406 -3.804688 6.414062 -3.207031 4.78125 -2.40625 C 3 -1.539062 1.691406 -0.878906 0.859375 -0.421875 L 0.609375 -0.921875 C 1.148438 -1.222656 1.519531 -1.488281 1.71875 -1.71875 C 1.925781 -1.945312 2.003906 -2.226562 1.953125 -2.5625 C 1.910156 -2.894531 1.738281 -3.378906 1.4375 -4.015625 L -4.640625 -16.453125 C -4.953125 -17.085938 -5.222656 -17.523438 -5.453125 -17.765625 C -5.691406 -18.003906 -5.960938 -18.113281 -6.265625 -18.09375 C -6.566406 -18.070312 -7.003906 -17.9375 -7.578125 -17.6875 L -7.8125 -18.203125 C -6.9375 -18.566406 -5.609375 -19.179688 -3.828125 -20.046875 C -2.191406 -20.847656 -0.9375 -21.492188 -0.0625 -21.984375 L 0.171875 -21.46875 C -0.378906 -21.164062 -0.753906 -20.898438 -0.953125 -20.671875 C -1.160156 -20.453125 -1.238281 -20.175781 -1.1875 -19.84375 C -1.144531 -19.507812 -0.96875 -19.023438 -0.65625 -18.390625 L 2.234375 -12.46875 L 8.890625 -15.71875 L 6 -21.640625 C 5.6875 -22.273438 5.410156 -22.710938 5.171875 -22.953125 C 4.941406 -23.191406 4.675781 -23.300781 4.375 -23.28125 C 4.070312 -23.257812 3.632812 -23.125 3.0625 -22.875 L 2.828125 -23.390625 C 3.785156 -23.796875 5.109375 -24.414062 6.796875 -25.25 C 8.523438 -26.082031 9.785156 -26.726562 10.578125 -27.1875 Z M 10.8125 -26.671875 "/></g></g></g><g fill="#ffffff" fill-opacity="1"><g transform="translate(42.254843, 39.507759)"><g><path d="M 16.265625 -5.65625 C 16.628906 -5.101562 16.992188 -4.722656 17.359375 -4.515625 C 17.734375 -4.304688 18.0625 -4.222656 18.34375 -4.265625 L 18.453125 -3.71875 C 17.347656 -3.550781 15.957031 -3.296875 14.28125 -2.953125 C 12.414062 -2.578125 11.035156 -2.273438 10.140625 -2.046875 L 10.03125 -2.59375 C 10.71875 -2.757812 11.191406 -2.941406 11.453125 -3.140625 C 11.722656 -3.335938 11.820312 -3.609375 11.75 -3.953125 C 11.6875 -4.273438 11.484375 -4.691406 11.140625 -5.203125 L 8.609375 -9.375 L 2.640625 -8.171875 L 2.3125 -6.140625 C 2.0625 -4.722656 2.007812 -3.65625 2.15625 -2.9375 C 2.289062 -2.257812 2.585938 -1.828125 3.046875 -1.640625 C 3.503906 -1.460938 4.140625 -1.4375 4.953125 -1.5625 L 5.0625 -1.015625 C 3.8125 -0.816406 2.675781 -0.617188 1.65625 -0.421875 C 0.8125 -0.242188 0.125 -0.078125 -0.40625 0.078125 L -0.515625 -0.46875 C 0.347656 -0.8125 0.941406 -1.925781 1.265625 -3.8125 L 4.28125 -21.09375 C 4.476562 -21.113281 4.796875 -21.171875 5.234375 -21.265625 C 5.671875 -21.347656 5.984375 -21.414062 6.171875 -21.46875 Z M 8.28125 -9.875 L 4.09375 -16.71875 L 2.734375 -8.765625 Z M 8.28125 -9.875 "/></g></g></g><g fill="#ffffff" fill-opacity="1"><g transform="translate(61.445501, 35.841366)"><g><path d="M 10.296875 -18.921875 C 9.628906 -18.910156 9.140625 -18.851562 8.828125 -18.75 C 8.515625 -18.65625 8.296875 -18.445312 8.171875 -18.125 C 8.054688 -17.8125 7.988281 -17.300781 7.96875 -16.59375 L 7.5625 -2.40625 C 7.539062 -1.8125 7.570312 -1.378906 7.65625 -1.109375 C 7.75 -0.835938 7.910156 -0.648438 8.140625 -0.546875 C 8.367188 -0.453125 8.742188 -0.394531 9.265625 -0.375 L 10.625 -0.34375 C 11.894531 -0.300781 13.003906 -0.832031 13.953125 -1.9375 C 14.910156 -3.050781 15.5625 -4.546875 15.90625 -6.421875 L 16.546875 -6.40625 C 16.472656 -5.769531 16.421875 -4.953125 16.390625 -3.953125 C 16.335938 -2.160156 16.359375 -0.6875 16.453125 0.46875 C 15.191406 0.382812 13.0625 0.296875 10.0625 0.203125 C 6 0.0859375 2.960938 0.03125 0.953125 0.03125 L 0.96875 -0.53125 C 1.582031 -0.550781 2.035156 -0.613281 2.328125 -0.71875 C 2.617188 -0.820312 2.816406 -1.03125 2.921875 -1.34375 C 3.035156 -1.65625 3.101562 -2.164062 3.125 -2.875 L 3.53125 -16.71875 C 3.550781 -17.425781 3.507812 -17.941406 3.40625 -18.265625 C 3.3125 -18.585938 3.125 -18.804688 2.84375 -18.921875 C 2.5625 -19.046875 2.113281 -19.128906 1.5 -19.171875 L 1.515625 -19.734375 C 2.460938 -19.660156 3.929688 -19.59375 5.921875 -19.53125 C 7.828125 -19.476562 9.289062 -19.460938 10.3125 -19.484375 Z M 10.296875 -18.921875 "/></g></g></g><g fill="#ffffff" fill-opacity="1"><g transform="translate(79.430184, 36.370111)"><g><path d="M 17.09375 2.046875 C 17.1875 2.703125 17.351562 3.203125 17.59375 3.546875 C 17.832031 3.898438 18.085938 4.125 18.359375 4.21875 L 18.21875 4.765625 C 17.144531 4.429688 15.78125 4.046875 14.125 3.609375 C 12.289062 3.128906 10.914062 2.796875 10 2.609375 L 10.140625 2.0625 C 10.835938 2.21875 11.347656 2.265625 11.671875 2.203125 C 11.992188 2.140625 12.195312 1.9375 12.28125 1.59375 C 12.363281 1.269531 12.367188 0.804688 12.296875 0.203125 L 11.84375 -4.640625 L 5.9375 -6.171875 L 4.765625 -4.5 C 3.910156 -3.34375 3.394531 -2.410156 3.21875 -1.703125 C 3.039062 -1.035156 3.117188 -0.515625 3.453125 -0.140625 C 3.796875 0.222656 4.359375 0.523438 5.140625 0.765625 L 5 1.3125 C 3.78125 0.9375 2.664062 0.617188 1.65625 0.359375 C 0.832031 0.140625 0.144531 -0.015625 -0.40625 -0.109375 L -0.265625 -0.65625 C 0.660156 -0.582031 1.679688 -1.320312 2.796875 -2.875 L 13.109375 -17.078125 C 13.296875 -17.015625 13.609375 -16.925781 14.046875 -16.8125 C 14.472656 -16.695312 14.78125 -16.625 14.96875 -16.59375 Z M 11.78125 -5.234375 L 11.015625 -13.25 L 6.3125 -6.65625 Z M 11.78125 -5.234375 "/></g></g></g><g fill="#ffffff" fill-opacity="1"><g transform="translate(98.28343, 41.496499)"><g><path d="M 17.5625 -12.484375 C 16.957031 -12.773438 16.488281 -12.9375 16.15625 -12.96875 C 15.832031 -13.007812 15.546875 -12.914062 15.296875 -12.6875 C 15.046875 -12.46875 14.757812 -12.046875 14.4375 -11.421875 L 7.84375 1.140625 C 7.570312 1.671875 7.410156 2.078125 7.359375 2.359375 C 7.316406 2.648438 7.378906 2.890625 7.546875 3.078125 C 7.710938 3.273438 8.023438 3.492188 8.484375 3.734375 L 9.6875 4.359375 C 10.8125 4.953125 12.046875 4.957031 13.390625 4.375 C 14.734375 3.800781 15.96875 2.742188 17.09375 1.203125 L 17.65625 1.5 C 17.320312 2.03125 16.921875 2.738281 16.453125 3.625 C 15.628906 5.21875 15.003906 6.554688 14.578125 7.640625 C 13.472656 7.015625 11.59375 6.003906 8.9375 4.609375 C 5.34375 2.722656 2.644531 1.332031 0.84375 0.4375 L 1.109375 -0.0625 C 1.660156 0.195312 2.085938 0.34375 2.390625 0.375 C 2.703125 0.40625 2.976562 0.304688 3.21875 0.078125 C 3.46875 -0.148438 3.753906 -0.578125 4.078125 -1.203125 L 10.515625 -13.46875 C 10.835938 -14.09375 11.023438 -14.570312 11.078125 -14.90625 C 11.128906 -15.238281 11.054688 -15.519531 10.859375 -15.75 C 10.660156 -15.988281 10.296875 -16.265625 9.765625 -16.578125 L 10.03125 -17.078125 C 10.84375 -16.585938 12.128906 -15.882812 13.890625 -14.96875 C 15.578125 -14.082031 16.890625 -13.421875 17.828125 -12.984375 Z M 17.5625 -12.484375 "/></g></g></g><g fill="#ffffff" fill-opacity="1"><g transform="translate(10.257529, 196.699603)"><g><path d="M 10.71875 0.328125 C 11.832031 1.640625 12.441406 2.816406 12.546875 3.859375 C 12.648438 4.898438 12.378906 5.738281 11.734375 6.375 C 10.859375 7.238281 9.835938 7.5625 8.671875 7.34375 C 7.515625 7.132812 6.328125 6.414062 5.109375 5.1875 C 4.835938 4.90625 4.617188 4.664062 4.453125 4.46875 C 3.859375 3.832031 3.269531 3.21875 2.6875 2.625 C 1.71875 1.644531 0.976562 0.929688 0.46875 0.484375 L 0.75 0.203125 C 1.082031 0.484375 1.347656 0.671875 1.546875 0.765625 C 1.753906 0.867188 1.960938 0.863281 2.171875 0.75 C 2.390625 0.644531 2.675781 0.414062 3.03125 0.0625 L 10.0625 -6.875 C 10.414062 -7.226562 10.644531 -7.507812 10.75 -7.71875 C 10.863281 -7.9375 10.875 -8.144531 10.78125 -8.34375 C 10.695312 -8.550781 10.507812 -8.816406 10.21875 -9.140625 L 10.5 -9.421875 C 10.945312 -8.910156 11.644531 -8.175781 12.59375 -7.21875 L 14.15625 -5.671875 C 14.351562 -5.492188 14.570312 -5.28125 14.8125 -5.03125 C 15.9375 -3.894531 16.585938 -2.828125 16.765625 -1.828125 C 16.953125 -0.828125 16.710938 0 16.046875 0.65625 C 15.492188 1.195312 14.742188 1.460938 13.796875 1.453125 C 12.859375 1.441406 11.84375 1.0625 10.75 0.3125 Z M 14.359375 -4.953125 C 14.109375 -5.203125 13.890625 -5.351562 13.703125 -5.40625 C 13.523438 -5.46875 13.328125 -5.4375 13.109375 -5.3125 C 12.890625 -5.1875 12.613281 -4.957031 12.28125 -4.625 L 9.078125 -1.46875 L 9.671875 -0.859375 C 10.285156 -0.242188 10.921875 -0.0195312 11.578125 -0.1875 C 12.234375 -0.351562 12.914062 -0.785156 13.625 -1.484375 C 14.320312 -2.171875 14.738281 -2.800781 14.875 -3.375 C 15.007812 -3.945312 14.835938 -4.472656 14.359375 -4.953125 Z M 5.03125 4.453125 C 6.332031 5.765625 7.804688 5.601562 9.453125 3.96875 C 10.203125 3.226562 10.582031 2.476562 10.59375 1.71875 C 10.613281 0.96875 10.222656 0.1875 9.421875 -0.625 L 8.828125 -1.21875 L 5.25 2.3125 C 4.90625 2.644531 4.675781 2.914062 4.5625 3.125 C 4.457031 3.332031 4.441406 3.535156 4.515625 3.734375 C 4.585938 3.929688 4.757812 4.171875 5.03125 4.453125 Z M 5.03125 4.453125 "/></g></g></g><g fill="#ffffff" fill-opacity="1"><g transform="translate(22.897849, 208.948247)"><g><path d="M 14.140625 -8.3125 C 15.347656 -7.59375 16.257812 -6.71875 16.875 -5.6875 C 17.488281 -4.65625 17.769531 -3.523438 17.71875 -2.296875 C 17.675781 -1.066406 17.273438 0.1875 16.515625 1.46875 C 15.765625 2.726562 14.84375 3.6875 13.75 4.34375 C 12.65625 5.007812 11.488281 5.335938 10.25 5.328125 C 9.019531 5.316406 7.816406 4.960938 6.640625 4.265625 C 5.421875 3.546875 4.503906 2.671875 3.890625 1.640625 C 3.285156 0.609375 3.003906 -0.515625 3.046875 -1.734375 C 3.097656 -2.960938 3.503906 -4.222656 4.265625 -5.515625 C 5.015625 -6.765625 5.929688 -7.722656 7.015625 -8.390625 C 8.109375 -9.066406 9.273438 -9.394531 10.515625 -9.375 C 11.753906 -9.363281 12.960938 -9.007812 14.140625 -8.3125 Z M 13.890625 -8.046875 C 13.253906 -8.421875 12.550781 -8.492188 11.78125 -8.265625 C 11.007812 -8.046875 10.21875 -7.554688 9.40625 -6.796875 C 8.601562 -6.046875 7.851562 -5.078125 7.15625 -3.890625 C 6.445312 -2.710938 5.972656 -1.585938 5.734375 -0.515625 C 5.492188 0.554688 5.472656 1.488281 5.671875 2.28125 C 5.878906 3.070312 6.285156 3.648438 6.890625 4.015625 C 7.523438 4.378906 8.226562 4.453125 9 4.234375 C 9.78125 4.015625 10.570312 3.519531 11.375 2.75 C 12.175781 1.988281 12.925781 1.019531 13.625 -0.15625 C 14.320312 -1.34375 14.789062 -2.46875 15.03125 -3.53125 C 15.28125 -4.601562 15.300781 -5.535156 15.09375 -6.328125 C 14.882812 -7.117188 14.484375 -7.691406 13.890625 -8.046875 Z M 13.890625 -8.046875 "/></g></g></g><g fill="#ffffff" fill-opacity="1"><g transform="translate(40.497039, 218.697678)"><g><path d="M 10.28125 -11.796875 C 12.769531 -11.117188 14.484375 -10.039062 15.421875 -8.5625 C 16.359375 -7.09375 16.535156 -5.28125 15.953125 -3.125 C 15.566406 -1.726562 14.929688 -0.59375 14.046875 0.28125 C 13.160156 1.15625 12.0625 1.722656 10.75 1.984375 C 9.445312 2.253906 8.003906 2.175781 6.421875 1.75 L 5.234375 1.40625 C 4.492188 1.175781 3.960938 1.015625 3.640625 0.921875 C 2.304688 0.554688 1.304688 0.304688 0.640625 0.171875 L 0.75 -0.203125 C 1.175781 -0.117188 1.5 -0.0820312 1.71875 -0.09375 C 1.945312 -0.113281 2.125 -0.226562 2.25 -0.4375 C 2.382812 -0.644531 2.515625 -0.988281 2.640625 -1.46875 L 5.234375 -11 C 5.367188 -11.476562 5.429688 -11.835938 5.421875 -12.078125 C 5.410156 -12.316406 5.3125 -12.5 5.125 -12.625 C 4.945312 -12.757812 4.648438 -12.898438 4.234375 -13.046875 L 4.328125 -13.421875 C 4.867188 -13.242188 5.640625 -13.015625 6.640625 -12.734375 L 7.25 -12.578125 L 8.03125 -12.375 C 9.070312 -12.113281 9.820312 -11.921875 10.28125 -11.796875 Z M 10.171875 -11.46875 C 9.765625 -11.570312 9.453125 -11.601562 9.234375 -11.5625 C 9.023438 -11.53125 8.847656 -11.410156 8.703125 -11.203125 C 8.554688 -10.992188 8.421875 -10.660156 8.296875 -10.203125 L 5.6875 -0.59375 C 5.5625 -0.144531 5.507812 0.203125 5.53125 0.453125 C 5.550781 0.710938 5.644531 0.914062 5.8125 1.0625 C 5.976562 1.207031 6.269531 1.335938 6.6875 1.453125 C 8.226562 1.867188 9.472656 1.625 10.421875 0.71875 C 11.367188 -0.1875 12.144531 -1.734375 12.75 -3.921875 C 13.34375 -6.109375 13.4375 -7.804688 13.03125 -9.015625 C 12.632812 -10.234375 11.679688 -11.050781 10.171875 -11.46875 Z M 10.171875 -11.46875 "/></g></g></g><g fill="#ffffff" fill-opacity="1"><g transform="translate(59.539731, 223.153587)"><g><path d="M 11.046875 -13.828125 C 11.660156 -13.816406 12.164062 -13.828125 12.5625 -13.859375 L 12.546875 -13.46875 C 11.929688 -13.238281 11.285156 -12.484375 10.609375 -11.203125 L 8.15625 -6.59375 L 8.0625 -1.953125 C 8.050781 -1.453125 8.078125 -1.082031 8.140625 -0.84375 C 8.210938 -0.613281 8.347656 -0.457031 8.546875 -0.375 C 8.753906 -0.300781 9.078125 -0.242188 9.515625 -0.203125 L 9.515625 0.1875 C 8.796875 0.132812 7.773438 0.09375 6.453125 0.0625 C 5.023438 0.0390625 3.992188 0.0390625 3.359375 0.0625 L 3.359375 -0.328125 C 3.804688 -0.347656 4.132812 -0.394531 4.34375 -0.46875 C 4.550781 -0.539062 4.691406 -0.691406 4.765625 -0.921875 C 4.847656 -1.148438 4.894531 -1.515625 4.90625 -2.015625 L 4.96875 -5.375 L 1.265625 -12.5625 C 0.859375 -13.320312 0.476562 -13.703125 0.125 -13.703125 L 0.140625 -14.109375 C 0.722656 -14.035156 1.503906 -13.988281 2.484375 -13.96875 C 3.722656 -13.945312 4.972656 -13.953125 6.234375 -13.984375 L 6.21875 -13.578125 C 5.75 -13.585938 5.378906 -13.550781 5.109375 -13.46875 C 4.835938 -13.382812 4.703125 -13.226562 4.703125 -13 C 4.691406 -12.882812 4.734375 -12.738281 4.828125 -12.5625 L 7.75 -6.671875 L 9.359375 -9.75 C 9.898438 -10.78125 10.175781 -11.597656 10.1875 -12.203125 C 10.195312 -12.648438 10.054688 -12.972656 9.765625 -13.171875 C 9.484375 -13.378906 9.078125 -13.503906 8.546875 -13.546875 L 8.5625 -13.9375 C 9.46875 -13.882812 10.296875 -13.847656 11.046875 -13.828125 Z M 11.046875 -13.828125 "/></g></g></g><g fill="#ffffff" fill-opacity="1"><g transform="translate(75.40383, 222.869536)"><g/></g></g><g fill="#ffffff" fill-opacity="1"><g transform="translate(83.530091, 221.761885)"><g><path d="M 11.046875 -5.34375 C 11.347656 -4.976562 11.632812 -4.734375 11.90625 -4.609375 C 12.1875 -4.492188 12.429688 -4.460938 12.640625 -4.515625 L 12.765625 -4.140625 C 11.992188 -3.929688 11.03125 -3.640625 9.875 -3.265625 C 8.582031 -2.847656 7.625 -2.515625 7 -2.265625 L 6.875 -2.640625 C 7.351562 -2.828125 7.679688 -3 7.859375 -3.15625 C 8.035156 -3.320312 8.082031 -3.523438 8 -3.765625 C 7.925781 -3.984375 7.742188 -4.257812 7.453125 -4.59375 L 5.328125 -7.328125 L 1.203125 -5.984375 L 1.125 -4.546875 C 1.0625 -3.515625 1.109375 -2.753906 1.265625 -2.265625 C 1.421875 -1.796875 1.671875 -1.515625 2.015625 -1.421875 C 2.359375 -1.335938 2.8125 -1.367188 3.375 -1.515625 L 3.5 -1.140625 C 2.632812 -0.898438 1.847656 -0.664062 1.140625 -0.4375 C 0.554688 -0.25 0.0820312 -0.0703125 -0.28125 0.09375 L -0.40625 -0.28125 C 0.175781 -0.59375 0.503906 -1.429688 0.578125 -2.796875 L 1.296875 -15.28125 C 1.453125 -15.3125 1.679688 -15.375 1.984375 -15.46875 C 2.285156 -15.570312 2.492188 -15.65625 2.609375 -15.71875 Z M 5.078125 -7.671875 L 1.546875 -12.171875 L 1.21875 -6.421875 Z M 5.078125 -7.671875 "/></g></g></g><g fill="#ffffff" fill-opacity="1"><g transform="translate(99.895936, 215.972123)"><g><path d="M 11.609375 -8.1875 C 11.515625 -7.644531 11.335938 -7.191406 11.078125 -6.828125 C 10.828125 -6.460938 10.453125 -6.125 9.953125 -5.8125 C 9.296875 -5.414062 8.691406 -5.234375 8.140625 -5.265625 C 7.585938 -5.304688 7.054688 -5.628906 6.546875 -6.234375 L 5.1875 -7.734375 C 4.53125 -8.460938 3.976562 -8.957031 3.53125 -9.21875 C 3.082031 -9.488281 2.613281 -9.472656 2.125 -9.171875 L 1.015625 -8.484375 L 3.421875 -4.59375 C 3.679688 -4.164062 3.898438 -3.875 4.078125 -3.71875 C 4.265625 -3.5625 4.460938 -3.503906 4.671875 -3.546875 C 4.890625 -3.585938 5.203125 -3.707031 5.609375 -3.90625 L 5.8125 -3.578125 C 5.175781 -3.234375 4.316406 -2.726562 3.234375 -2.0625 C 2.015625 -1.3125 1.128906 -0.742188 0.578125 -0.359375 L 0.375 -0.6875 C 0.71875 -0.945312 0.957031 -1.164062 1.09375 -1.34375 C 1.226562 -1.519531 1.265625 -1.722656 1.203125 -1.953125 C 1.148438 -2.179688 0.992188 -2.507812 0.734375 -2.9375 L -4.453125 -11.34375 C -4.710938 -11.769531 -4.929688 -12.0625 -5.109375 -12.21875 C -5.296875 -12.375 -5.5 -12.429688 -5.71875 -12.390625 C -5.9375 -12.347656 -6.234375 -12.222656 -6.609375 -12.015625 L -6.828125 -12.359375 C -6.222656 -12.671875 -5.347656 -13.175781 -4.203125 -13.875 L -2.34375 -15.046875 C -2.125 -15.210938 -1.867188 -15.382812 -1.578125 -15.5625 C -0.015625 -16.53125 1.3125 -17 2.40625 -16.96875 C 3.5 -16.945312 4.335938 -16.460938 4.921875 -15.515625 C 5.421875 -14.710938 5.5625 -13.820312 5.34375 -12.84375 C 5.132812 -11.875 4.410156 -10.894531 3.171875 -9.90625 C 4.234375 -10.4375 5.117188 -10.679688 5.828125 -10.640625 C 6.535156 -10.597656 7.1875 -10.273438 7.78125 -9.671875 L 9.234375 -8.15625 C 9.597656 -7.757812 9.894531 -7.503906 10.125 -7.390625 C 10.363281 -7.285156 10.585938 -7.300781 10.796875 -7.4375 C 10.929688 -7.53125 11.03125 -7.632812 11.09375 -7.75 C 11.15625 -7.863281 11.207031 -8.023438 11.25 -8.234375 Z M -1.609375 -15.109375 C -1.898438 -14.921875 -2.09375 -14.742188 -2.1875 -14.578125 C -2.289062 -14.410156 -2.304688 -14.207031 -2.234375 -13.96875 C -2.171875 -13.726562 -2.015625 -13.40625 -1.765625 -13 L 0.8125 -8.828125 L 1.546875 -9.28125 C 2.472656 -9.851562 2.957031 -10.488281 3 -11.1875 C 3.039062 -11.882812 2.785156 -12.679688 2.234375 -13.578125 C 1.660156 -14.492188 1.066406 -15.09375 0.453125 -15.375 C -0.160156 -15.65625 -0.847656 -15.566406 -1.609375 -15.109375 Z M -1.609375 -15.109375 "/></g></g></g><g fill="#ffffff" fill-opacity="1"><g transform="translate(114.810964, 206.160378)"><g><path d="M -1.0625 -18.984375 C -0.226562 -18.035156 0.539062 -17.210938 1.25 -16.515625 C 1.6875 -16.085938 2.0625 -15.753906 2.375 -15.515625 L 2.0625 -15.1875 C 0.675781 -16.09375 -0.445312 -16.582031 -1.3125 -16.65625 C -2.1875 -16.738281 -2.957031 -16.4375 -3.625 -15.75 L -3.953125 -15.421875 L 4.15625 -7.4375 C 4.550781 -7.050781 4.878906 -6.804688 5.140625 -6.703125 C 5.398438 -6.609375 5.660156 -6.632812 5.921875 -6.78125 C 6.179688 -6.925781 6.535156 -7.210938 6.984375 -7.640625 L 7.265625 -7.359375 C 6.066406 -6.203125 5.164062 -5.320312 4.5625 -4.71875 C 3.976562 -4.125 3.140625 -3.242188 2.046875 -2.078125 L 1.765625 -2.359375 C 2.191406 -2.816406 2.472656 -3.175781 2.609375 -3.4375 C 2.753906 -3.695312 2.78125 -3.957031 2.6875 -4.21875 C 2.59375 -4.488281 2.347656 -4.816406 1.953125 -5.203125 L -6.15625 -13.1875 L -6.46875 -12.875 C -6.925781 -12.414062 -7.207031 -11.925781 -7.3125 -11.40625 C -7.414062 -10.894531 -7.351562 -10.300781 -7.125 -9.625 C -6.894531 -8.957031 -6.460938 -8.148438 -5.828125 -7.203125 L -6.140625 -6.875 C -6.390625 -7.175781 -6.734375 -7.539062 -7.171875 -7.96875 C -7.878906 -8.664062 -8.71875 -9.425781 -9.6875 -10.25 C -8.800781 -11.082031 -7.34375 -12.53125 -5.3125 -14.59375 C -3.28125 -16.644531 -1.863281 -18.109375 -1.0625 -18.984375 Z M -1.0625 -18.984375 "/></g></g></g></svg>